<svg width="127" height="36" viewBox="0 0 127 36" fill="none" xmlns="http://www.w3.org/2000/svg">
<path fill-rule="evenodd" clip-rule="evenodd" d="M31.5867 32.7798L31.5865 32.7789C31.5225 32.3443 27.7992 7.05967 27.7367 6.87215C27.7367 6.68301 27.5473 6.61997 27.421 6.61997C27.2948 6.61997 24.5804 6.43082 24.5804 6.43082L22.4972 4.35026C22.4846 4.3377 22.4709 4.32624 22.4563 4.31581C22.3884 4.26672 22.287 4.22517 22.1852 4.22419C22.0528 4.20749 21.9154 4.21531 21.8218 4.22064C21.7879 4.22257 21.7598 4.22417 21.7397 4.22417C21.7397 4.22417 21.2978 4.35026 20.6665 4.5394C20.0353 2.71103 18.9621 1.0718 17.0052 1.0718H16.8789C16.3108 0.378284 15.6164 0 15.0483 0C10.5032 0 8.3569 5.67426 7.66252 8.57443C5.89498 9.14186 4.63246 9.52014 4.5062 9.52014L4.4431 9.54113C3.55641 9.83586 3.49332 9.85684 3.36993 10.7811C3.24368 11.4116 0.718628 31.3345 0.718628 31.3345L20.6702 35.0432L20.6665 35.1173L31.5874 32.7846L31.5867 32.7798ZM19.5934 4.91769C19.2718 5.03814 18.9246 5.13302 18.5518 5.23489C18.3392 5.29299 18.1182 5.35337 17.889 5.42207V5.04378C17.889 3.90893 17.6996 3.02627 17.4471 2.33275C18.5202 2.3958 19.2146 3.5937 19.5934 4.91769ZM16.7527 5.61121C16.7527 4.28722 16.5633 3.27846 16.3108 2.58494C15.1745 3.02627 13.912 4.28722 13.2808 6.87215C14.4802 6.49387 15.6796 6.11559 16.7527 5.80035V5.61121ZM14.922 1.32399C15.1114 1.32399 15.3008 1.38704 15.4902 1.51313C14.0383 2.20666 12.4601 3.90893 11.8288 7.37653C11.0898 7.62256 10.3508 7.83019 9.64182 8.02938L9.64135 8.02951L9.64033 8.0298L9.64019 8.02984C9.4413 8.08572 9.24479 8.14093 9.05129 8.19615C9.87193 5.54816 11.7026 1.32399 14.922 1.32399ZM17.0683 12.6095L15.7427 16.5814C15.7427 16.5814 14.5433 15.951 13.1545 15.951C11.0713 15.951 10.9451 17.275 10.9451 17.5902C10.9451 18.3157 11.6906 18.8626 12.59 19.5223C13.9571 20.525 15.6795 21.7884 15.6795 24.3363C15.6795 27.6778 13.5333 29.8214 10.6926 29.8214C7.28376 29.8214 5.51622 27.6778 5.51622 27.6778L6.39999 24.6515C6.39999 24.6515 8.23065 26.2277 9.74568 26.2277C10.7557 26.2277 11.1345 25.4711 11.1345 24.8406C11.1345 23.7886 10.3798 23.1864 9.53325 22.5108C8.45191 21.6479 7.22063 20.6653 7.22063 18.4729C7.22063 15.1944 9.5563 12.042 14.3539 12.042C16.1846 12.042 17.0683 12.6095 17.0683 12.6095ZM108.98 14.0595H111.947L111.379 17.1489H108.412L106.139 29.0648H101.847L104.119 17.2119H102.099L102.731 13.9965H104.751L104.877 13.303C105.193 11.5377 105.887 9.77233 107.339 8.51138C108.475 7.50263 109.99 7.0613 111.505 7.0613C113.083 7.0613 113.841 7.43958 113.841 7.43958L113.02 10.7811C113.02 10.7811 112.389 10.5919 111.631 10.5919C110.243 10.5919 109.359 11.9159 109.106 13.366L108.98 14.0595ZM59.5523 13.7443C57.6585 13.7443 56.2066 14.627 55.0072 16.014H54.9441L56.5854 7.37653H52.2928L48.1264 29.1909H52.419L53.8709 21.7513C54.4391 18.9142 55.891 17.2119 57.2166 17.2119C58.1635 17.2119 58.5423 17.8424 58.5423 18.7881C58.5423 19.3555 58.4791 20.1121 58.3529 20.6795L56.7116 29.1909H61.0673L62.7717 20.3643C62.9611 19.4186 63.0874 18.3468 63.0874 17.5902C63.0242 15.1944 61.7617 13.7443 59.5523 13.7443ZM44.2757 20.049C43.2026 19.4816 42.6345 18.9772 42.6345 18.2837C42.6345 17.4011 43.392 16.8336 44.6545 16.8336C46.0433 16.8336 47.3058 17.4011 47.3058 17.4011L48.3158 14.3748C48.3158 14.3748 47.4321 13.6813 44.7176 13.6813C40.9932 13.6813 38.405 15.8249 38.405 18.7881C38.405 20.4904 39.6044 21.8144 41.2457 22.697C42.5713 23.4536 43.0132 23.958 43.0132 24.7145C43.0132 25.5342 42.382 26.1646 41.1194 26.1646C39.2888 26.1646 37.6475 25.2189 37.6475 25.2189L36.5743 28.2452C36.5743 28.2452 38.1525 29.317 40.8038 29.317C44.6545 29.317 47.3689 27.4256 47.3689 24.021C47.3058 22.3187 45.917 21.0578 44.2757 20.049ZM64.1605 23.5166C64.1605 18.4098 67.5693 13.7443 72.6826 13.7443C76.6595 13.7443 78.4902 16.5814 78.4902 19.7338C78.4902 24.9667 75.0814 29.5061 70.0312 29.5061C66.1806 29.5061 64.1605 26.8581 64.1605 23.5166ZM70.5994 26.1646C69.1475 26.1646 68.5162 24.9037 68.5162 23.3905C68.5162 20.9317 69.7787 16.9597 72.1144 16.9597C73.6295 16.9597 74.1345 18.2837 74.1345 19.5447C74.0713 22.1296 72.8088 26.1646 70.5994 26.1646ZM84.8659 16.2662C84.8659 16.2662 86.5072 13.7443 89.411 13.7443C92.5042 13.7443 93.7667 16.2662 93.7667 19.1664C93.7667 24.3993 90.4842 29.5061 85.4972 29.5061C83.8559 29.5061 82.9721 28.9387 82.9721 28.9387H82.909L81.7096 35.2434H77.4801L80.384 19.6708C80.7627 17.9054 81.0784 15.5727 81.2677 13.9965H85.0553L84.8028 16.2662H84.8659ZM85.3078 26.1646C84.1715 26.1646 83.5403 25.5342 83.5403 25.5342L84.2347 21.5622C84.7397 18.9142 86.1284 17.1489 87.5804 17.1489C88.906 17.1489 89.2848 18.3468 89.2848 19.4816C89.3479 22.3187 87.7066 26.1646 85.3078 26.1646ZM97.428 10.0245C97.428 8.63748 98.5012 7.56567 99.89 7.56567C101.152 7.56567 102.036 8.51138 102.036 9.70928C101.973 11.2855 100.837 12.1681 99.5112 12.1681H99.4481C98.2487 12.1681 97.428 11.2855 97.428 10.0245ZM93.893 29.0648H98.1856L101.089 13.9335H96.7968L93.893 29.0648ZM122.174 14.0595C122.174 14.0595 119.522 20.8056 118.323 24.4623H118.26C118.197 23.2644 117.187 14.0595 117.187 14.0595H112.705L115.293 27.9299C115.356 28.2452 115.293 28.4343 115.23 28.6235C114.725 29.5692 113.904 30.5149 112.894 31.2084C112.073 31.7758 111.19 32.1541 110.495 32.4063L111.695 36C112.578 35.8109 114.346 35.1173 115.861 33.6673C117.818 31.8389 119.585 29.0018 121.479 25.2189L126.719 14.0595H122.174Z" fill="#A29FB2"/>
</svg>