<svg width="19" height="18" viewBox="0 0 19 18" fill="none" xmlns="http://www.w3.org/2000/svg">
<g id="fill-flag-02">
<path id="icon" fill-rule="evenodd" clip-rule="evenodd" d="M3.5 0.75C3.91421 0.75 4.25 1.08579 4.25 1.5V1.98162C4.36908 1.9482 4.49566 1.91392 4.62786 1.8798C5.39028 1.68304 6.41534 1.47132 7.27527 1.5003C8.37859 1.53749 9.1739 1.96936 9.82495 2.32289C9.83593 2.32886 9.84687 2.3348 9.85777 2.34071C10.525 2.70284 11.0458 2.97572 11.7753 3.0003C12.408 3.02163 13.2579 2.85836 13.9973 2.66754C14.3569 2.57474 14.6726 2.48023 14.898 2.409C15.0105 2.37345 15.1 2.34387 15.1606 2.32345C15.1909 2.31324 15.2139 2.30533 15.2289 2.30011L15.2454 2.29437L15.249 2.29312C15.4786 2.21178 15.7338 2.24679 15.9327 2.38732C16.1317 2.52787 16.25 2.75629 16.25 2.99988V11.2499C16.25 11.5675 16.05 11.8506 15.7506 11.9568L15.7477 11.9578L15.7415 11.96L15.7196 11.9676C15.7009 11.9741 15.674 11.9833 15.6396 11.9949C15.5709 12.018 15.4724 12.0506 15.3499 12.0893C15.1055 12.1665 14.7635 12.269 14.3721 12.37C13.6097 12.5667 12.5847 12.7784 11.7247 12.7495C10.6214 12.7123 9.8261 12.2804 9.17505 11.9269C9.16407 11.9209 9.15313 11.915 9.14223 11.909C8.47504 11.5469 7.95417 11.274 7.22473 11.2495C6.59204 11.2281 5.7421 11.3914 5.00268 11.5822C4.71605 11.6562 4.45735 11.7312 4.25 11.7947V16.4999C4.25 16.9141 3.91421 17.2499 3.5 17.2499C3.08579 17.2499 2.75 16.9141 2.75 16.4999V1.5C2.75 1.08579 3.08579 0.75 3.5 0.75Z" fill="#A29FB2"/>
</g>
</svg>
