<svg width="24" height="24" viewBox="0 0 24 24" fill="none" xmlns="http://www.w3.org/2000/svg">
<g id="duotone-user-02-multiple">
<path id="icon_bg" opacity="0.1" fill-rule="evenodd" clip-rule="evenodd" d="M4 7C4 4.23858 6.23858 2 9 2C11.7614 2 14 4.23858 14 7C14 9.76142 11.7614 12 9 12C6.23858 12 4 9.76142 4 7ZM1 22C0.447715 22 0 21.5523 0 21V19C0 16.2386 2.23858 14 5 14H13C15.7614 14 18 16.2386 18 19V21C18 21.5523 17.5523 22 17 22C15.4838 22 6.46776 22 1 22Z" fill="#6826F7"/>
<path id="icon" fill-rule="evenodd" clip-rule="evenodd" d="M9 4C7.34315 4 6 5.34315 6 7C6 8.65685 7.34315 10 9 10C10.6569 10 12 8.65685 12 7C12 5.34315 10.6569 4 9 4ZM4 7C4 4.23858 6.23858 2 9 2C11.7614 2 14 4.23858 14 7C14 9.76142 11.7614 12 9 12C6.23858 12 4 9.76142 4 7ZM15 4C14.9356 4 14.8718 4.00202 14.8086 4.00597C14.2574 4.0405 13.7826 3.62165 13.748 3.07044C13.7135 2.51924 14.1324 2.04441 14.6836 2.00988C14.7883 2.00332 14.8938 2 15 2C17.7614 2 20 4.23858 20 7C20 9.76142 17.7614 12 15 12C14.8938 12 14.7883 11.9967 14.6836 11.9901C14.1324 11.9556 13.7135 11.4808 13.748 10.9296C13.7826 10.3784 14.2574 9.9595 14.8086 9.99403C14.8718 9.99798 14.9356 10 15 10C16.6568 10 18 8.65685 18 7C18 5.34315 16.6568 4 15 4ZM5 16C3.34315 16 2 17.3431 2 19V21C2 21.5523 1.55228 22 1 22C0.447715 22 0 21.5523 0 21V19C0 16.2386 2.23858 14 5 14H13C15.7614 14 18 16.2386 18 19V21C18 21.5523 17.5523 22 17 22C16.4477 22 16 21.5523 16 21V19C16 17.3431 14.6569 16 13 16H5ZM17.75 15C17.75 14.4477 18.1977 14 18.75 14H19C21.7614 14 24 16.2386 24 19V21C24 21.5523 23.5523 22 23 22C22.4477 22 22 21.5523 22 21V19C22 17.3431 20.6568 16 19 16H18.75C18.1977 16 17.75 15.5523 17.75 15Z" fill="#6826F7"/>
</g>
</svg>
