
<svg width="0" height="0" class="hidden">
  <symbol  xmlns="http://www.w3.org/2000/svg" viewBox="0 0 24 24" id="projects">
    <path d="M7.52 1.027c-1.97.218-3.58 1.488-4.234 3.342-.283.802-.266.32-.266 7.631 0 6.161.005 6.602.071 6.931a5.042 5.042 0 0 0 3.978 3.978c.325.066.691.071 4.931.071s4.606-.005 4.931-.071a5.047 5.047 0 0 0 3.978-3.978c.066-.327.071-.724.071-5.771V7.74l-.094-.18c-.135-.26-6.145-6.273-6.423-6.428l-.203-.112-3.3-.004c-1.815-.002-3.363.003-3.44.011m5.49 3.723c.016 1.977.012 1.948.337 2.61.157.32.243.437.55.743.306.307.423.393.743.55.66.324.633.32 2.611.337l1.751.015-.012 4.768c-.014 5.342.01 4.912-.312 5.567-.366.742-1.096 1.339-1.918 1.568-.244.067-.542.072-4.76.072s-4.516-.005-4.76-.072c-.822-.229-1.552-.826-1.918-1.568-.326-.664-.299-.021-.312-7.2-.013-7.034-.024-6.707.226-7.303a3.09 3.09 0 0 1 1.601-1.601c.539-.226.589-.229 3.491-.233L12.995 3l.015 1.75m3.668 2.241c-.789.009-.901.003-1.05-.064a1 1 0 0 1-.525-.496c-.102-.204-.103-.22-.103-1.109V4.42l1.28 1.28 1.281 1.28-.883.011m-8.011 5.074C8.303 12.177 8 12.602 8 13c0 .402.312.827.69.939.307.091 6.313.091 6.62 0 .378-.112.69-.537.69-.939 0-.402-.312-.827-.69-.939-.302-.09-6.35-.086-6.643.004m0 4C8.303 16.177 8 16.602 8 17c0 .237.12.514.303.697.297.297.341.303 2.197.303s1.9-.006 2.197-.303c.183-.183.303-.46.303-.697 0-.402-.312-.827-.69-.939-.297-.088-3.354-.085-3.643.004"  fill-rule="evenodd"></path>
  </symbol>
  <symbol  xmlns="http://www.w3.org/2000/svg" viewBox="0 0 24 24" id="settings">
    <path d="M8.339 2.038c-1.459.134-2.856.948-3.649 2.128-.186.277-2.89 5.115-3.171 5.674-.659 1.312-.659 3.008 0 4.32.281.559 2.985 5.397 3.171 5.674.685 1.018 1.822 1.768 3.113 2.054l.417.092h3.76c4.161 0 4.021.008 4.84-.265.974-.325 1.945-1.06 2.506-1.898.197-.295 2.845-5.041 3.133-5.616A4.609 4.609 0 0 0 22.973 12c0-.826-.153-1.479-.514-2.201-.288-.575-2.936-5.321-3.133-5.616-.412-.615-1.11-1.233-1.798-1.593a5.046 5.046 0 0 0-1.318-.476c-.384-.087-.446-.088-3.97-.096-1.969-.005-3.724.004-3.901.02m7.521 2.017c.302.066.676.217.967.391.293.175.725.595.909.884.08.126.799 1.405 1.597 2.842 1.088 1.959 1.475 2.692 1.549 2.93.085.276.098.395.098.898s-.013.622-.098.898c-.074.238-.461.971-1.549 2.93a191.73 191.73 0 0 1-1.597 2.842c-.296.464-.826.893-1.385 1.121-.512.208-.47.206-4.355.208-3.508.001-3.633-.002-3.94-.08-.748-.191-1.404-.649-1.786-1.246-.283-.442-2.983-5.344-3.081-5.593a3.133 3.133 0 0 1 .027-2.23c.098-.232 2.732-5.008 2.996-5.43A3.005 3.005 0 0 1 8.04 4.083c.287-.075.456-.079 3.94-.079 2.848-.001 3.692.01 3.88.051m-4.593 3.526c-1.869.314-3.384 1.84-3.688 3.717-.391 2.41 1.293 4.729 3.719 5.123 2.973.482 5.605-2.15 5.123-5.123-.395-2.434-2.737-4.123-5.154-3.717m1.493 2.016c.753.234 1.41.897 1.65 1.663.07.22.088.378.088.74s-.018.52-.088.74a2.617 2.617 0 0 1-1.67 1.67c-.396.125-1.084.125-1.48 0a2.617 2.617 0 0 1-1.67-1.67c-.125-.396-.125-1.084 0-1.48.274-.876 1.061-1.58 1.944-1.739.309-.056.926-.018 1.226.076" fill-rule="evenodd" ></path>
  </symbol>
  <symbol  xmlns="http://www.w3.org/2000/svg" viewBox="0 0 24 24" id="stories">
    <path d="M3.636 1.041c-1.187.132-2.238 1.066-2.545 2.26-.066.26-.071.585-.071 4.699s.005 4.439.071 4.699a3.138 3.138 0 0 0 2.21 2.21c.253.064.506.071 2.699.071 2.193 0 2.446-.007 2.699-.071a3.138 3.138 0 0 0 2.21-2.21c.066-.26.071-.585.071-4.699s-.005-4.439-.071-4.699a3.16 3.16 0 0 0-1.645-2c-.567-.273-.558-.272-3.064-.283-1.243-.006-2.397.005-2.564.023m12 0c-1.187.132-2.238 1.066-2.545 2.26-.067.264-.071.744-.071 8.699s.004 8.435.071 8.699a3.138 3.138 0 0 0 2.21 2.21c.253.064.506.071 2.699.071 2.193 0 2.446-.007 2.699-.071a3.138 3.138 0 0 0 2.21-2.21c.067-.264.071-.744.071-8.699s-.004-8.435-.071-8.699a3.16 3.16 0 0 0-1.645-2c-.567-.273-.558-.272-3.064-.283-1.243-.006-2.397.005-2.564.023M8.421 3.075c.205.093.411.299.504.504.069.153.073.381.073 4.421s-.004 4.268-.073 4.421a1.099 1.099 0 0 1-.504.504c-.15.068-.318.073-2.421.073-2.103 0-2.271-.005-2.421-.073a1.099 1.099 0 0 1-.504-.504c-.069-.153-.073-.381-.073-4.421s.004-4.268.073-4.421c.093-.205.299-.411.504-.504.15-.068.318-.073 2.421-.073 2.103 0 2.271.005 2.421.073m12 0c.205.093.411.299.504.504.07.154.073.507.073 8.421s-.003 8.267-.073 8.421a1.099 1.099 0 0 1-.504.504c-.15.068-.318.073-2.421.073-2.103 0-2.271-.005-2.421-.073a1.099 1.099 0 0 1-.504-.504c-.07-.154-.073-.507-.073-8.421s.003-8.267.073-8.421c.093-.205.299-.411.504-.504.15-.068.318-.073 2.421-.073 2.103 0 2.271.005 2.421.073" fill-rule="evenodd" ></path>
  </symbol>
  <symbol  xmlns="http://www.w3.org/2000/svg" viewBox="0 0 24 24" id="support">
    <path d="M11.336 2.042A10.003 10.003 0 0 0 4.318 5.64c-1.222 1.48-1.944 3.14-2.226 5.12-.065.453-.072.88-.072 4.58 0 3.788.005 4.1.071 4.359.272 1.059 1.178 1.962 2.21 2.203.364.085 1.034.085 1.398 0 1.032-.241 1.938-1.144 2.21-2.203.064-.253.071-.506.071-2.699 0-2.193-.007-2.446-.071-2.699-.272-1.059-1.178-1.962-2.21-2.203-.361-.084-1.034-.085-1.391-.002-.15.035-.283.064-.296.064-.044 0 .023-1.178.085-1.52.406-2.211 1.601-4.055 3.435-5.296.919-.622 2.025-1.057 3.228-1.271.406-.072 2.074-.072 2.48 0a8.428 8.428 0 0 1 2.368.772c2.26 1.129 3.827 3.243 4.295 5.795.062.342.129 1.52.085 1.52-.013 0-.146-.029-.296-.064-.357-.083-1.03-.082-1.391.002-1.032.241-1.938 1.144-2.21 2.203-.064.253-.071.506-.071 2.699 0 2.193.007 2.446.071 2.699.272 1.059 1.178 1.962 2.21 2.203.364.085 1.034.085 1.398 0 1.032-.241 1.938-1.144 2.21-2.203.066-.259.071-.571.071-4.359 0-4.463.001-4.433-.245-5.54-.674-3.028-2.813-5.633-5.681-6.917a10.102 10.102 0 0 0-4.718-.841M5.421 14.075c.205.093.411.299.504.504.068.15.073.318.073 2.421 0 2.521.01 2.426-.281 2.717-.197.197-.412.281-.717.281s-.52-.084-.717-.281c-.291-.291-.281-.196-.281-2.717s-.01-2.426.281-2.717c.197-.197.412-.281.717-.281.166 0 .318.026.421.073m14 0c.088.04.222.134.296.208.291.291.281.196.281 2.717s.01 2.426-.281 2.717c-.197.197-.412.281-.717.281s-.52-.084-.717-.281c-.291-.291-.281-.196-.281-2.717s-.01-2.426.281-2.717c.197-.197.412-.281.717-.281.166 0 .318.026.421.073" fill-rule="evenodd" ></path>
  </symbol>
  <symbol  xmlns="http://www.w3.org/2000/svg" viewBox="0 0 24 24" id="tasks">
    <path d="M3.636 1.044c-1.178.12-2.265 1.087-2.538 2.257-.085.364-.085 1.034 0 1.398.241 1.035 1.168 1.962 2.203 2.203.364.085 1.034.085 1.398 0 1.035-.241 1.962-1.168 2.203-2.203.085-.364.085-1.034 0-1.398-.192-.825-.841-1.617-1.639-2.001-.475-.228-1.034-.316-1.627-.256m.785 2.031c.367.166.577.504.577.925 0 .593-.405.998-.998.998S3.002 4.593 3.002 4s.405-.998.998-.998c.166 0 .318.026.421.073M9.8 3.044c-.358.07-.688.406-.755.766a.982.982 0 0 0 .798 1.151c.147.027 2.293.037 6.3.03 6.725-.012 6.191.01 6.507-.268a.976.976 0 0 0 0-1.446c-.316-.278.224-.256-6.55-.263-3.435-.003-6.199.01-6.3.03m-6.164 6c-1.178.12-2.262 1.084-2.539 2.257-.085.362-.085 1.031.001 1.398.242 1.035 1.168 1.962 2.203 2.203.364.085 1.034.085 1.398 0 1.035-.241 1.962-1.168 2.203-2.203.085-.364.085-1.034 0-1.398-.192-.825-.841-1.617-1.639-2.001-.475-.228-1.034-.316-1.627-.256m.785 2.031c.367.166.577.504.577.925 0 .593-.405.998-.998.998s-.998-.405-.998-.998.405-.998.998-.998c.166 0 .318.026.421.073m5.379-.031c-.358.07-.688.406-.755.766a.982.982 0 0 0 .798 1.151c.147.027 2.293.037 6.3.03 6.725-.012 6.191.01 6.507-.268a.976.976 0 0 0 0-1.446c-.316-.278.224-.256-6.55-.263-3.435-.003-6.199.01-6.3.03m-6.164 6c-1.178.12-2.262 1.084-2.539 2.257-.085.362-.085 1.031.001 1.398.242 1.035 1.168 1.962 2.203 2.203.364.085 1.034.085 1.398 0 1.035-.241 1.962-1.168 2.203-2.203.085-.364.085-1.034 0-1.398-.192-.825-.841-1.617-1.639-2.001-.475-.228-1.034-.316-1.627-.256m.785 2.031c.367.166.577.504.577.925 0 .593-.405.998-.998.998s-.998-.405-.998-.998.405-.998.998-.998c.166 0 .318.026.421.073m5.379-.031c-.358.07-.688.406-.755.766a.982.982 0 0 0 .798 1.151c.147.027 2.293.037 6.3.03 6.725-.012 6.191.01 6.507-.268a.976.976 0 0 0 0-1.446c-.316-.278.224-.256-6.55-.263-3.435-.003-6.199.01-6.3.03" fill-rule="evenodd" ></path>
  </symbol>
  <symbol  xmlns="http://www.w3.org/2000/svg" viewBox="0 0 24 24" id="members">
    <path d="M8.58 2.043c-1.692.132-3.264 1.2-4.03 2.737a4.982 4.982 0 0 0 0 4.44c.222.447.483.814.849 1.196.979 1.024 2.202 1.55 3.601 1.55s2.622-.526 3.601-1.55c.902-.942 1.365-2.102 1.365-3.416 0-1.399-.526-2.622-1.55-3.601-1.033-.989-2.391-1.468-3.836-1.356m6.03-.003c-.568.084-.956.658-.81 1.199.07.259.256.495.493.624.187.102.259.115.767.142.686.037.819.068 1.3.304.325.159.436.242.762.569.326.326.41.438.569.762.225.457.309.829.309 1.365a2.8 2.8 0 0 1-.311 1.355c-.158.326-.239.434-.567.762-.326.327-.437.41-.762.569-.481.236-.614.267-1.3.304-.508.027-.58.04-.767.142a.963.963 0 0 0-.188 1.582c.252.221.377.255.936.25 1.371-.011 2.595-.545 3.56-1.553.902-.942 1.365-2.102 1.365-3.416 0-1.399-.526-2.622-1.55-3.601-.884-.846-1.971-1.307-3.236-1.371a3.731 3.731 0 0 0-.57.012M9.687 4.061c.163.034.462.144.673.248a3.067 3.067 0 0 1 1.331 1.331c.225.457.309.829.309 1.365a2.8 2.8 0 0 1-.311 1.355c-.158.326-.239.434-.567.762-.326.326-.438.41-.762.569A2.802 2.802 0 0 1 9 10c-.531 0-.904-.085-1.36-.309-.324-.159-.436-.243-.762-.569-.326-.326-.41-.438-.569-.762A2.802 2.802 0 0 1 6 7c0-.531.085-.904.309-1.36.159-.324.243-.436.569-.762.325-.326.438-.41.762-.57.209-.103.497-.212.64-.243.353-.077 1.048-.079 1.407-.004M4.58 14.04a5.01 5.01 0 0 0-4.299 3.392c-.231.693-.257.936-.259 2.428-.002 1.343-.001 1.362.091 1.548.175.355.499.56.887.56a.964.964 0 0 0 .887-.56c.09-.183.094-.229.118-1.608.015-.875.042-1.489.071-1.6.026-.099.131-.351.233-.56.159-.325.242-.436.569-.762.326-.326.438-.41.762-.569C4.298 15.985 4.043 16 9 16c4.957 0 4.702-.015 5.36.309.324.159.436.243.762.569.327.326.41.437.569.762.102.209.207.461.233.56.029.111.056.725.071 1.6.024 1.379.028 1.425.118 1.608.175.355.499.56.887.56a.964.964 0 0 0 .887-.56c.092-.186.093-.205.091-1.548-.002-1.13-.014-1.421-.073-1.72-.198-1.013-.622-1.843-1.304-2.556-.734-.767-1.56-1.229-2.631-1.47-.387-.088-.419-.088-4.71-.097-2.376-.004-4.482.006-4.68.023m13.993.001a.887.887 0 0 0-.519.286c-.204.217-.271.384-.271.673 0 .297.087.501.303.708.211.202.391.255.991.294.678.044.811.076 1.283.307.325.159.436.242.762.569.327.326.41.437.569.762.102.209.207.461.233.56.029.111.056.725.071 1.6.024 1.379.028 1.425.118 1.608.175.355.499.56.887.56a.964.964 0 0 0 .887-.56c.092-.186.093-.205.091-1.548-.002-1.495-.028-1.735-.262-2.436a4.994 4.994 0 0 0-3.747-3.3c-.456-.09-1.158-.132-1.396-.083" fill-rule="evenodd" ></path>
  </symbol>
  <symbol xmlns="http://www.w3.org/2000/svg" viewBox="0 0 24 24" id="log-out">
  <path d="M10.789 2.044a.895.895 0 0 0-.517.308.969.969 0 0 0 .003 1.3c.08.088.226.198.325.244.177.083.237.084 3.6.104l3.42.02.32.113a3.11 3.11 0 0 1 1.966 2.047c.07.228.074.508.074 5.82s-.004 5.592-.074 5.82a3.11 3.11 0 0 1-1.966 2.047l-.32.113-3.42.02c-3.363.02-3.423.021-3.6.104a.983.983 0 0 0-.325 1.548c.08.088.226.198.325.244.177.083.234.084 3.2.096 1.9.008 3.214-.004 3.544-.03 1.27-.104 2.306-.575 3.175-1.443.723-.724 1.131-1.488 1.37-2.567l.091-.412V6.46l-.091-.412c-.239-1.079-.647-1.843-1.37-2.567-.853-.853-1.892-1.332-3.119-1.44-.567-.05-6.399-.047-6.611.003m-4 4.999c-.084.02-.201.062-.26.094-.06.032-1.075 1.026-2.255 2.21C1.977 11.653 2.026 11.595 2.026 12c0 .405-.049.347 2.248 2.654 1.595 1.601 2.191 2.175 2.321 2.234.11.05.26.08.405.08.548 0 .964-.407.969-.948.003-.416-.001-.423-1.342-1.769l-1.244-1.25 5.419-.01c5.4-.011 5.419-.011 5.598-.095a.983.983 0 0 0 .325-1.548 1.232 1.232 0 0 0-.325-.244c-.179-.084-.198-.084-5.598-.095l-5.419-.01 1.244-1.25c1.342-1.348 1.345-1.352 1.342-1.772-.006-.608-.596-1.075-1.18-.934" fill-rule="evenodd" />
  </symbol>
  <symbol xmlns="http://www.w3.org/2000/svg" viewBox="0 0 24 24" id="chevron-right">
<path d="M1.5 1L6.5 6L1.5 11" stroke="#A29FB2" stroke-width="2" stroke-linecap="round" stroke-linejoin="round" fill="white"/>
</symbol>
   <symbol xmlns="http://www.w3.org/2000/svg" viewBox="0 0 24 20" id="flag">
    <path fill-rule="evenodd" clip-rule="evenodd"
      d="M4 1C4.55228 1 5 1.44772 5 2V2.64216C5.15878 2.5976 5.32754 2.55189 5.50381 2.5064C6.52038 2.24406 7.88712 1.96176 9.03369 2.0004C10.5048 2.04999 11.5652 2.62582 12.4333 3.09719C12.4479 3.10514 12.4625 3.11306 12.477 3.12095C13.3666 3.60379 14.0611 3.96762 15.0337 4.0004C15.8773 4.02884 17.0105 3.81114 17.9964 3.55672C18.4759 3.43298 18.8967 3.30697 19.1973 3.21199C19.3473 3.1646 19.4666 3.12516 19.5474 3.09793C19.5878 3.08432 19.6185 3.07377 19.6386 3.06682L19.6606 3.05917L19.6654 3.05749C19.9714 2.94904 20.3118 2.99572 20.577 3.18309C20.8423 3.37049 21 3.67505 21 3.99984V14.9998C21 15.4233 20.7333 15.8009 20.3342 15.9424L20.3303 15.9437L20.322 15.9466L20.2928 15.9568C20.2678 15.9654 20.232 15.9778 20.1862 15.9932C20.0946 16.024 19.9632 16.0675 19.7999 16.119C19.4739 16.2221 19.018 16.3586 18.4962 16.4933C17.4796 16.7556 16.1129 17.0379 14.9663 16.9993C13.4952 16.9497 12.4348 16.3739 11.5667 15.9025C11.5521 15.8945 11.5375 15.8866 11.523 15.8787C10.6334 15.3959 9.9389 15.0321 8.96631 14.9993C8.12272 14.9708 6.98946 15.1885 6.00357 15.443C5.62139 15.5416 5.27646 15.6417 5 15.7263V21.9998C5 22.5521 4.55228 22.9998 4 22.9998C3.44772 22.9998 3 22.5521 3 21.9998V2C3 1.44772 3.44772 1 4 1Z" />
  </symbol>
  <symbol xmlns="http://www.w3.org/2000/svg" viewBox="0 0 24 24" id="check">
    <path
      d="M19.642 6.269c-.194.069-.063-.057-6.58 6.342l-3.239 3.18-.747-.726a808.896 808.896 0 0 1-2.603-2.55c-1.206-1.185-1.919-1.857-2.035-1.917-.241-.125-.629-.128-.863-.007-.381.197-.556.487-.553.912.002.233.022.317.109.466.059.1.465.53.903.956.437.426 1.65 1.614 2.694 2.639 1.771 1.74 1.918 1.874 2.201 2.014a1.946 1.946 0 0 0 1.788-.002c.274-.135.405-.25 1.363-1.195.583-.575 2.617-2.572 4.52-4.437 4.456-4.368 4.26-4.168 4.338-4.429.12-.405.042-.728-.244-1.015a.988.988 0 0 0-1.052-.231"
      fill-rule="evenodd" />
  </symbol>
  <symbol xmlns="http://www.w3.org/2000/svg" viewBox="0 0 24 24" id="three-dots">
    <path
      d="M7 12C7 13.1046 6.10457 14 5 14C3.89543 14 3 13.1046 3 12C3 10.8954 3.89543 10 5 10C6.10457 10 7 10.8954 7 12Z" />
    <path
      d="M14 12C14 13.1046 13.1046 14 12 14C10.8954 14 10 13.1046 10 12C10 10.8954 10.8954 10 12 10C13.1046 10 14 10.8954 14 12Z" />
    <path
      d="M21 12C21 13.1046 20.1046 14 19 14C17.8954 14 17 13.1046 17 12C17 10.8954 17.8954 10 19 10C20.1046 10 21 10.8954 21 12Z" />
  </symbol>
  <symbol xmlns="http://www.w3.org/2000/svg" viewBox="0 0 24 24" id="edit">
    <path fill-rule="evenodd" clip-rule="evenodd"
      d="M17.5633 2.43662C16.9812 1.85446 16.0373 1.85446 15.4552 2.43662L2.5128 15.379C2.47855 15.4132 2.4552 15.4568 2.4457 15.5043L2.0054 17.7058C1.97107 17.8775 2.12243 18.0289 2.29411 17.9945L4.49561 17.5542C4.5431 17.5447 4.58673 17.5214 4.62098 17.4871L17.5633 4.5448C18.1455 3.96264 18.1455 3.01878 17.5633 2.43662ZM14.0409 1.0224C15.4041 -0.340801 17.6143 -0.340802 18.9775 1.0224C20.3407 2.38561 20.3407 4.5958 18.9775 5.95901L6.03519 18.9014C5.72174 19.2148 5.32252 19.4285 4.88784 19.5154L2.68634 19.9557C1.11522 20.2699 -0.269983 18.8847 0.0442412 17.3136L0.484542 15.1121C0.571478 14.6774 0.785136 14.2782 1.09859 13.9648L14.0409 1.0224Z" />
  </symbol>
  <symbol xmlns="http://www.w3.org/2000/svg" viewBox="0 0 24 24" id="delete">
    <path fill-rule="evenodd" clip-rule="evenodd"
      d="M6 2C6 0.895431 6.89543 0 8 0H10C11.1046 0 12 0.895431 12 2H16.5C17.3284 2 18 2.67157 18 3.5C18 4.32843 17.3284 5 16.5 5H16V15C16 17.7614 13.7614 20 11 20H7C4.23858 20 2 17.7614 2 15V5H1.5C0.671573 5 0 4.32843 0 3.5C0 2.67157 0.671573 2 1.5 2H6ZM4 5V15C4 16.6569 5.34315 18 7 18H11C12.6569 18 14 16.6569 14 15V5H4ZM7 7C7.55228 7 8 7.44772 8 8V15C8 15.5523 7.55228 16 7 16C6.44772 16 6 15.5523 6 15V8C6 7.44772 6.44772 7 7 7ZM11 7C11.5523 7 12 7.44772 12 8V15C12 15.5523 11.5523 16 11 16C10.4477 16 10 15.5523 10 15V8C10 7.44772 10.4477 7 11 7Z" />
  </symbol>
 <symbol xmlns="http://www.w3.org/2000/svg" viewBox="0 0 24 24" id="chevron-down">
    <path
      d="m7 9.5-.7.7 2.85 2.85L12 15.9l2.85-2.85 2.85-2.85-.7-.7-.699-.7-2.151 2.15L12 13.1l-2.15-2.15L7.699 8.8 7 9.5"
      fill-rule="evenodd" />
  </symbol>
  <symbol xmlns="http://www.w3.org/2000/svg" viewBox="0 0 24 24" id="calendar">
    <path
      d="M7 1C7 0.447715 6.55228 0 6 0C5.44772 0 5 0.447715 5 1H7ZM5 4C5 4.55228 5.44772 5 6 5C6.55228 5 7 4.55228 7 4H5ZM17 1C17 0.447715 16.5523 0 16 0C15.4477 0 15 0.447715 15 1H17ZM15 4C15 4.55228 15.4477 5 16 5C16.5523 5 17 4.55228 17 4H15ZM3.18404 20.564L3.63803 19.673L3.18404 20.564ZM1.43597 18.816L2.32698 18.362L1.43597 18.816ZM20.564 18.816L19.673 18.362L20.564 18.816ZM18.816 20.564L18.362 19.673L18.816 20.564ZM18.816 3.43597L18.362 4.32698L18.816 3.43597ZM20.564 5.18404L19.673 5.63803L20.564 5.18404ZM3.18404 3.43597L3.63803 4.32698L3.18404 3.43597ZM1.43597 5.18404L2.32698 5.63803L1.43597 5.18404ZM5 1V4H7V1H5ZM15 1V4H17V1H15ZM7.4 4H14.6V2H7.4V4ZM20 9.4V14.6H22V9.4H20ZM14.6 20H7.4V22H14.6V20ZM2 14.6V9.4H0V14.6H2ZM7.4 20C6.26339 20 5.47108 19.9992 4.85424 19.9488C4.24907 19.8994 3.90138 19.8072 3.63803 19.673L2.73005 21.455C3.32234 21.7568 3.96253 21.8826 4.69138 21.9422C5.40855 22.0008 6.2964 22 7.4 22V20ZM0 14.6C0 15.7036 -0.000777721 16.5914 0.0578178 17.3086C0.117367 18.0375 0.24318 18.6777 0.544967 19.27L2.32698 18.362C2.19279 18.0986 2.10062 17.7509 2.05118 17.1458C2.00078 16.5289 2 15.7366 2 14.6H0ZM3.63803 19.673C3.07354 19.3854 2.6146 18.9265 2.32698 18.362L0.544967 19.27C1.02433 20.2108 1.78924 20.9757 2.73005 21.455L3.63803 19.673ZM20 14.6C20 15.7366 19.9992 16.5289 19.9488 17.1458C19.8994 17.7509 19.8072 18.0986 19.673 18.362L21.455 19.27C21.7568 18.6777 21.8826 18.0375 21.9422 17.3086C22.0008 16.5914 22 15.7036 22 14.6H20ZM14.6 22C15.7036 22 16.5914 22.0008 17.3086 21.9422C18.0375 21.8826 18.6777 21.7568 19.27 21.455L18.362 19.673C18.0986 19.8072 17.7509 19.8994 17.1458 19.9488C16.5289 19.9992 15.7366 20 14.6 20V22ZM19.673 18.362C19.3854 18.9265 18.9265 19.3854 18.362 19.673L19.27 21.455C20.2108 20.9757 20.9757 20.2108 21.455 19.27L19.673 18.362ZM14.6 4C15.7366 4 16.5289 4.00078 17.1458 4.05118C17.7509 4.10062 18.0986 4.19279 18.362 4.32698L19.27 2.54497C18.6777 2.24318 18.0375 2.11737 17.3086 2.05782C16.5914 1.99922 15.7036 2 14.6 2V4ZM22 9.4C22 8.2964 22.0008 7.40855 21.9422 6.69138C21.8826 5.96253 21.7568 5.32234 21.455 4.73005L19.673 5.63803C19.8072 5.90138 19.8994 6.24907 19.9488 6.85424C19.9992 7.47108 20 8.26339 20 9.4H22ZM18.362 4.32698C18.9265 4.6146 19.3854 5.07354 19.673 5.63803L21.455 4.73005C20.9757 3.78924 20.2108 3.02433 19.27 2.54497L18.362 4.32698ZM7.4 2C6.2964 2 5.40855 1.99922 4.69138 2.05782C3.96253 2.11737 3.32234 2.24318 2.73005 2.54497L3.63803 4.32698C3.90138 4.19279 4.24907 4.10062 4.85424 4.05118C5.47108 4.00078 6.26339 4 7.4 4V2ZM2 9.4C2 8.26339 2.00078 7.47108 2.05118 6.85424C2.10062 6.24907 2.19279 5.90138 2.32698 5.63803L0.544967 4.73005C0.24318 5.32234 0.117367 5.96253 0.0578178 6.69138C-0.000777721 7.40855 0 8.2964 0 9.4H2ZM2.73005 2.54497C1.78924 3.02433 1.02433 3.78924 0.544967 4.73005L2.32698 5.63803C2.6146 5.07354 3.07354 4.6146 3.63803 4.32698L2.73005 2.54497ZM1 8H21V6H1V8ZM14 14H16V12H14V14ZM16 14V16H18V14H16ZM16 16H14V18H16V16ZM14 16V14H12V16H14ZM14 16H12C12 17.1046 12.8954 18 14 18V16ZM16 16V18C17.1046 18 18 17.1046 18 16H16ZM16 14H18C18 12.8954 17.1046 12 16 12V14ZM14 12C12.8954 12 12 12.8954 12 14H14V12Z" />

  </symbol>
   <symbol xmlns="http://www.w3.org/2000/svg" viewBox="0 0 24 24" id="check-sharp">
    <path
      d="M14.560 10.937 L 9.820 15.595 9.240 15.027 C 8.921 14.715,7.781 13.595,6.706 12.540 C 5.632 11.484,4.729 10.620,4.700 10.620 C 4.672 10.620,4.346 10.932,3.978 11.313 L 3.307 12.006 3.623 12.320 C 3.797 12.493,5.263 13.932,6.879 15.517 L 9.819 18.400 10.239 17.984 C 10.471 17.755,12.910 15.360,15.660 12.662 C 18.410 9.963,20.664 7.742,20.668 7.727 C 20.673 7.712,20.367 7.380,19.988 6.990 L 19.300 6.280 14.560 10.937 "
      fill-rule="evenodd"></path>
  </symbol>
  <symbol xmlns="http://www.w3.org/2000/svg" viewBox="0 0 24 24" id="minus-sharp">
    <path
      d="M4.000 12.000 L 4.000 13.000 12.000 13.000 L 20.000 13.000 20.000 12.000 L 20.000 11.000 12.000 11.000 L 4.000 11.000 4.000 12.000 "
      stroke="none" fill-rule="evenodd"></path>
  </symbol>
  <symbol xmlns="http://www.w3.org/2000/svg" viewBox="0 0 24 24" id="minus">
    <path
      d="M4.673 11.063 C 4.310 11.175,4.000 11.606,4.000 12.000 C 4.000 12.405,4.309 12.826,4.690 12.939 C 4.870 12.993,5.755 13.000,12.000 13.000 C 18.245 13.000,19.130 12.993,19.310 12.939 C 19.688 12.827,20.000 12.402,20.000 12.000 C 20.000 11.598,19.688 11.173,19.310 11.061 C 19.009 10.971,4.964 10.974,4.673 11.063 "
      fill-rule="evenodd"></path>
  </symbol>
<symbol xmlns="http://www.w3.org/2000/svg" viewBox="0 0 24 24" id="info-in-circle-filled">
    <path fill-rule="evenodd" clip-rule="evenodd"
      d="M12 2C17.5228 2 22 6.47715 22 12C22 17.5228 17.5228 22 12 22C6.47715 22 2 17.5228 2 12C2 6.47715 6.47715 2 12 2ZM13 17C13 17.5523 12.5523 18 12 18C11.4477 18 11 17.5523 11 17V11C11 10.4477 11.4477 10 12 10C12.5523 10 13 10.4477 13 11V17ZM13 7C13 7.55229 12.5523 8 12 8C11.4477 8 11 7.55229 11 7V6.99C11 6.43771 11.4477 5.99 12 5.99C12.5523 5.99 13 6.43771 13 6.99V7Z" />
  </symbol>
  <symbol xmlns="http://www.w3.org/2000/svg" viewBox="0 0 24 24" id="check-in-circle-filled">
    <path fill-rule="evenodd" clip-rule="evenodd"
      d="M12 22C17.5228 22 22 17.5228 22 12C22 6.47715 17.5228 2 12 2C6.47715 2 2 6.47715 2 12C2 17.5228 6.47715 22 12 22ZM16.7071 10.107C17.0976 9.71649 17.0976 9.08332 16.7071 8.6928C16.3166 8.30227 15.6834 8.30227 15.2929 8.6928L10.6667 13.319L8.70711 11.3595C8.31658 10.9689 7.68342 10.9689 7.29289 11.3595C6.90237 11.75 6.90237 12.3832 7.29289 12.7737L9.95956 15.4403C10.1471 15.6279 10.4015 15.7332 10.6667 15.7332C10.9319 15.7332 11.1862 15.6279 11.3738 15.4403L16.7071 10.107Z" />
  </symbol>
  <symbol xmlns="http://www.w3.org/2000/svg" viewBox="0 0 24 24" id="info-in-circle-sharp-filled">
    <path fill-rule="evenodd" clip-rule="evenodd"
      d="M12 2C17.5228 2 22 6.47715 22 12C22 17.5228 17.5228 22 12 22C6.47715 22 2 17.5228 2 12C2 6.47715 6.47715 2 12 2ZM11 17.5V10.5H13V17.5H11ZM11 8.5V6.5H13V8.5H11Z" />
  </symbol>
  <symbol xmlns="http://www.w3.org/2000/svg" viewBox="0 0 24 24" id="check-in-circle-sharp-filled">
    <path fill-rule="evenodd" clip-rule="evenodd"
      d="M12 22C17.5228 22 22 17.5228 22 12C22 6.47715 17.5228 2 12 2C6.47715 2 2 6.47715 2 12C2 17.5228 6.47715 22 12 22ZM10.9086 15.9017L16.7002 10.2135L15.2988 8.78662L10.9086 13.0984L8.70024 10.9295L7.29883 12.3564L10.9086 15.9017Z" />
  </symbol>
  <symbol xmlns="http://www.w3.org/2000/svg" viewBox="0 0 24 24" id="check-in-circle">
    <path
      d="m11.28 1.023-.56.06c-1.888.2-3.729.94-5.36 2.152-.606.451-1.674 1.519-2.125 2.125-1.034 1.39-1.698 2.866-2.011 4.47-.166.847-.201 1.227-.201 2.17 0 .943.035 1.323.201 2.17.313 1.604.977 3.08 2.011 4.47.451.606 1.519 1.674 2.125 2.125 1.625 1.209 3.314 1.89 5.36 2.162.491.065 2.069.065 2.56 0 2.046-.272 3.735-.953 5.36-2.162.606-.451 1.674-1.519 2.125-2.125 1.209-1.625 1.89-3.314 2.162-5.36.065-.491.065-2.069 0-2.56-.272-2.046-.953-3.735-2.162-5.36-.451-.606-1.519-1.674-2.125-2.125-1.595-1.186-3.275-1.875-5.217-2.139C13 1.038 11.574.99 11.28 1.023m1.728 2.036a8.827 8.827 0 0 1 3.012.899c.947.479 1.613.959 2.338 1.684.725.725 1.205 1.391 1.684 2.338 1.075 2.123 1.249 4.555.493 6.86-.619 1.887-1.895 3.547-3.608 4.692-.789.528-2.051 1.056-3.019 1.265a9.049 9.049 0 0 1-7.542-1.782 10.477 10.477 0 0 1-1.381-1.381 9.173 9.173 0 0 1-1.943-4.748c-.233-2.309.476-4.687 1.946-6.526 1.449-1.811 3.627-3.017 5.96-3.299a9.918 9.918 0 0 1 2.06-.002m2.632 5.409c-.154.053-.521.402-2.581 2.457l-2.4 2.394-1.02-1.024C8.516 11.167 8.399 11.08 8 11.081a1.003 1.003 0 0 0-.892.539c-.123.23-.119.654.007.9.138.268 2.885 3.008 3.125 3.117.26.117.608.111.862-.016.152-.076.845-.747 2.984-2.89 2.699-2.703 2.789-2.798 2.85-3.008.08-.271.08-.375.003-.633-.155-.524-.753-.809-1.299-.622"
      fill-rule="evenodd" />
  </symbol>
  <symbol xmlns="http://www.w3.org/2000/svg" viewBox="0 0 24 24" id="x-in-circle">
    <path
      d="M11.052 1.041c-2.115.205-4.007.933-5.689 2.189-.609.454-1.679 1.524-2.133 2.133a11.039 11.039 0 0 0-2.114 5.079c-.133.886-.133 2.23 0 3.116.301 2.006 1.046 3.724 2.317 5.342.284.361 1.306 1.383 1.667 1.667 1.618 1.271 3.336 2.016 5.342 2.317.886.133 2.23.133 3.116 0 1.964-.295 3.654-1.017 5.242-2.238.438-.337 1.509-1.408 1.846-1.846 1.221-1.588 1.943-3.278 2.238-5.242.133-.886.133-2.23 0-3.116-.295-1.964-1.019-3.659-2.239-5.242-.314-.407-1.354-1.46-1.745-1.767-1.615-1.266-3.356-2.023-5.32-2.313-.642-.095-1.946-.136-2.528-.079m1.956 2.018a8.867 8.867 0 0 1 2.972.879 8.405 8.405 0 0 1 2.377 1.705 8.365 8.365 0 0 1 1.704 2.377c1.253 2.549 1.253 5.411 0 7.96a8.365 8.365 0 0 1-1.704 2.377 8.365 8.365 0 0 1-2.377 1.704c-2.547 1.252-5.425 1.252-7.96.001a8.405 8.405 0 0 1-2.377-1.705 8.405 8.405 0 0 1-1.705-2.377 8.917 8.917 0 0 1 0-7.96 8.405 8.405 0 0 1 1.705-2.377A8.405 8.405 0 0 1 8.02 3.938a8.947 8.947 0 0 1 4.988-.879M8.973 8.202a.972.972 0 0 0-.716.578c-.097.233-.088.603.022.822.059.117.469.559 1.194 1.288L10.578 12l-1.105 1.11c-.725.729-1.135 1.171-1.194 1.288-.173.347-.099.83.173 1.117.28.296.788.387 1.15.206.117-.059.559-.469 1.288-1.194L12 13.422l1.11 1.105c.729.725 1.171 1.135 1.288 1.194.362.181.87.09 1.15-.206.272-.287.346-.77.173-1.117-.059-.117-.469-.559-1.194-1.288L13.422 12l1.105-1.11c.725-.729 1.135-1.171 1.194-1.288.173-.347.099-.83-.173-1.117a1.03 1.03 0 0 0-1.15-.206c-.117.059-.559.469-1.288 1.194L12 10.578l-1.11-1.105c-.668-.665-1.174-1.136-1.27-1.183-.2-.098-.431-.13-.647-.088"
      fill-rule="evenodd" />
  </symbol>
  <symbol xmlns="http://www.w3.org/2000/svg" viewBox="0 0 24 24" id="plus">
    <path fill-rule="evenodd"
      d="M 11 2 L 11 11 L 2 11 L 2 13 L 11 13 L 11 22 L 13 22 L 13 13 L 22 13 L 22 11 L 13 11 L 13 2 Z"></path>
  </symbol>
  <symbol xmlns="http://www.w3.org/2000/svg" viewBox="0 0 24 24" id="archive">
    <path
      d="M3.485 2.045c-.303.05-.732.206-.998.362-.292.171-.909.788-1.08 1.08-.527.898-.527 2.143 0 3.021.29.483.883 1.017 1.367 1.231l.223.099.014 4.911c.015 5.423-.003 5.036.271 5.86a4.797 4.797 0 0 0 1.197 1.912c.744.744 1.626 1.202 2.712 1.408.39.074 9.228.074 9.618 0 1.086-.206 1.968-.664 2.712-1.408.732-.732 1.183-1.59 1.406-2.677.032-.159.05-1.639.061-5.115l.015-4.891.223-.099c.484-.214 1.077-.748 1.367-1.231.527-.878.527-2.123 0-3.021-.171-.292-.788-.909-1.08-1.08a3.263 3.263 0 0 0-1.033-.364c-.326-.053-16.677-.051-16.995.002m16.935 2.05a.976.976 0 0 1 .578.905.976.976 0 0 1-.578.905l-.2.094H3.78l-.2-.094A.976.976 0 0 1 3.002 5c0-.399.213-.732.578-.905l.2-.094h16.44l.2.094M19 12.662c0 5.247.013 4.994-.3 5.638a2.93 2.93 0 0 1-1.4 1.4c-.641.312-.43.3-5.3.3s-4.659.012-5.3-.3a2.93 2.93 0 0 1-1.4-1.4c-.313-.644-.3-.391-.3-5.638V8h14v4.662m-9.515-2.617c-.303.05-.732.206-.998.362-.292.171-.909.788-1.08 1.08-.527.899-.527 2.127 0 3.026.171.292.788.909 1.08 1.08.28.164.691.309 1.033.364.35.057 4.61.057 4.96 0 .654-.105 1.108-.346 1.62-.857.397-.398.575-.667.726-1.102.284-.815.194-1.784-.233-2.511-.171-.292-.788-.909-1.08-1.08a3.263 3.263 0 0 0-1.033-.364c-.319-.052-4.683-.05-4.995.002m4.915 2.038c.242.11.391.257.505.497a.996.996 0 0 1-.505 1.337c-.174.079-.253.081-2.4.082H9.78l-.2-.094A.976.976 0 0 1 9.002 13c0-.399.213-.732.578-.905l.2-.094H12c2.147.001 2.226.003 2.4.082"
      fill-rule="evenodd" />
  </symbol>
  <symbol xmlns="http://www.w3.org/2000/svg" viewBox="0 0 24 24" id="pause-in-circle">
    <path
      d="m11.28 1.023-.56.06c-1.888.2-3.729.94-5.36 2.152-.606.451-1.674 1.519-2.125 2.125-1.034 1.39-1.698 2.866-2.011 4.47-.166.847-.201 1.227-.201 2.17 0 .943.035 1.323.201 2.17.313 1.604.977 3.08 2.011 4.47.451.606 1.519 1.674 2.125 2.125 1.625 1.209 3.314 1.89 5.36 2.162.491.065 2.069.065 2.56 0 2.046-.272 3.735-.953 5.36-2.162.606-.451 1.674-1.519 2.125-2.125 1.209-1.625 1.89-3.314 2.162-5.36.065-.491.065-2.069 0-2.56-.272-2.046-.953-3.735-2.162-5.36-.451-.606-1.519-1.674-2.125-2.125-1.595-1.186-3.275-1.875-5.217-2.139C13 1.038 11.574.99 11.28 1.023m1.728 2.036a8.827 8.827 0 0 1 3.012.899c.947.479 1.613.959 2.338 1.684.725.725 1.205 1.391 1.684 2.338 1.075 2.123 1.249 4.555.493 6.86-.619 1.887-1.895 3.547-3.608 4.692-.789.528-2.051 1.056-3.019 1.265a9.049 9.049 0 0 1-7.542-1.782 10.477 10.477 0 0 1-1.381-1.381 9.173 9.173 0 0 1-1.943-4.748c-.233-2.309.476-4.687 1.946-6.526 1.449-1.811 3.627-3.017 5.96-3.299a9.918 9.918 0 0 1 2.06-.002M9.046 7.623a.975.975 0 0 0-.488.573c-.028.097-.038 1.38-.03 3.887l.012 3.743.121.196c.075.121.196.242.317.317.176.109.229.121.522.121.293 0 .346-.012.522-.121.121-.075.242-.196.317-.317l.121-.196V8.174l-.121-.196c-.179-.289-.434-.433-.795-.45-.245-.011-.314.002-.498.095m5 0a.975.975 0 0 0-.488.573c-.028.097-.038 1.38-.03 3.887l.012 3.743.121.196c.075.121.196.242.317.317.176.109.229.121.522.121.293 0 .346-.012.522-.121.121-.075.242-.196.317-.317l.121-.196V8.174l-.121-.196c-.179-.289-.434-.433-.795-.45-.245-.011-.314.002-.498.095"
      fill-rule="evenodd" />
  </symbol>
  <symbol xmlns="http://www.w3.org/2000/svg" viewBox="0 0 24 24" id="play-in-circle">
    <path
      d="M11.096 1.038c-2.194.199-4.134.961-5.896 2.317-.438.337-1.506 1.405-1.849 1.849C2.279 6.59 1.545 8.188 1.224 9.83c-.166.847-.201 1.227-.201 2.17 0 .943.035 1.323.201 2.17.311 1.595.99 3.107 2.006 4.467.454.609 1.524 1.679 2.133 2.133a11.1 11.1 0 0 0 5.177 2.136c.592.085 2.213.098 2.76.021 2.066-.289 3.743-.967 5.337-2.157.609-.454 1.679-1.524 2.133-2.133 1.016-1.36 1.695-2.872 2.006-4.467.168-.857.202-1.226.201-2.19 0-.754-.017-1.031-.093-1.538-.294-1.959-1.017-3.654-2.239-5.242-.337-.438-1.407-1.508-1.845-1.845-1.591-1.224-3.275-1.944-5.223-2.234-.629-.093-1.897-.136-2.481-.083m1.767 2.004a9.025 9.025 0 0 1 7.22 5.018c1.039 2.119 1.198 4.505.452 6.78-.615 1.877-1.876 3.528-3.555 4.657-.767.516-1.88 1.006-2.817 1.241-.766.192-1.202.241-2.163.241-.961 0-1.397-.049-2.163-.241a9.428 9.428 0 0 1-3.509-1.746A9.085 9.085 0 0 1 3 11.986c0-3.413 1.976-6.563 5.06-8.068a8.998 8.998 0 0 1 4.803-.876m-2.612 4.016c-.706.161-1.32.724-1.558 1.431-.066.194-.073.467-.084 3.377-.013 3.406-.008 3.503.195 3.921.32.663.989 1.131 1.709 1.198.365.034.781-.042 1.092-.199.336-.17 4.268-3.012 4.567-3.302.266-.256.524-.73.588-1.079a2.087 2.087 0 0 0-.55-1.843c-.142-.147-.93-.744-2.05-1.553-2.423-1.749-2.431-1.754-2.736-1.869a2.274 2.274 0 0 0-1.173-.082m2.509 3.407c1.42 1.028 2.02 1.485 2.02 1.537 0 .089-3.952 2.97-4.08 2.975-.079.003-.08-.026-.09-2.937-.006-1.617-.002-2.962.008-2.99.011-.027.043-.05.071-.049.028 0 .96.659 2.071 1.464"
      fill-rule="evenodd" />
  </symbol>

    <symbol xmlns="http://www.w3.org/2000/svg" viewBox="0 0 24 24" id="arrow-left">
    <path
      d="M11.64 4.068c-.156.053-.66.541-3.845 3.727-3.356 3.356-3.671 3.682-3.73 3.862a.987.987 0 0 0 0 .686c.059.18.374.507 3.73 3.864 3.57 3.572 3.671 3.668 3.882 3.73.271.079.375.079.633.002.279-.083.546-.35.629-.629.077-.258.077-.362-.003-.633-.061-.21-.151-.305-2.789-2.947L7.422 13h5.843c6.341 0 6.057.01 6.356-.218a1.24 1.24 0 0 0 .248-.293c.095-.161.111-.233.111-.489s-.016-.328-.111-.489a1.19 1.19 0 0 0-.243-.289c-.307-.235.051-.222-6.34-.222H7.422l2.725-2.73c2.638-2.642 2.728-2.737 2.789-2.947.08-.271.08-.375.003-.633-.155-.523-.752-.809-1.299-.622"
      fill-rule="evenodd" />
  </symbol>

  <symbol xmlns="http://www.w3.org/2000/svg" viewBox="0 0 24 24" id="x">
    <path
      d="M5.65 5.067c-.229.081-.506.364-.586.599a.968.968 0 0 0 .001.677c.06.179.315.447 2.789 2.927L10.578 12l-2.725 2.73c-2.638 2.642-2.728 2.737-2.789 2.947-.08.271-.08.375-.003.633.083.279.35.546.629.629.258.077.362.077.633-.003.21-.061.305-.151 2.947-2.789L12 13.422l2.73 2.725c2.642 2.638 2.737 2.728 2.947 2.789.271.08.375.08.633.003.279-.083.546-.35.629-.629.077-.258.077-.362-.003-.633-.061-.21-.151-.305-2.789-2.947L13.422 12l2.725-2.73c2.638-2.642 2.728-2.737 2.789-2.947.08-.271.08-.375.003-.633a1.004 1.004 0 0 0-.629-.629c-.258-.077-.362-.077-.633.003-.21.061-.305.151-2.947 2.789L12 10.578 9.27 7.854C6.79 5.38 6.522 5.125 6.343 5.065a1.03 1.03 0 0 0-.693.002"
      fill-rule="evenodd" />
  </symbol>

<symbol fill="none" xmlns="http://www.w3.org/2000/svg" viewBox="0 0 18 20" id="name">
    <path d="M13 5C13 7.20914 11.2091 9 9 9C6.79086 9 5 7.20914 5 5C5 2.79086 6.79086 1 9 1C11.2091 1 13 2.79086 13 5Z" stroke="#DDD9ED" stroke-width="2"></path>
  </symbol>
  <symbol fill="none" xmlns="http://www.w3.org/2000/svg" viewBox="0 0 20 22" id="company">
    <path d="M5 4C4.44772 4 4 4.44772 4 5C4 5.55228 4.44772 6 5 6V4ZM9 6C9.55229 6 10 5.55228 10 5C10 4.44772 9.55229 4 9 4V6ZM5 8C4.44772 8 4 8.44772 4 9C4 9.55229 4.44772 10 5 10V8ZM9 10C9.55229 10 10 9.55229 10 9C10 8.44772 9.55229 8 9 8V10ZM5 12C4.44772 12 4 12.4477 4 13C4 13.5523 4.44772 14 5 14V12ZM9 14C9.55229 14 10 13.5523 10 13C10 12.4477 9.55229 12 9 12V14ZM5 16C4.44772 16 4 16.4477 4 17C4 17.5523 4.44772 18 5 18V16ZM9 18C9.55229 18 10 17.5523 10 17C10 16.4477 9.55229 16 9 16V18ZM19 21V22H20V21H19ZM1 21H0V22H1V21ZM5 6H9V4H5V6ZM5 10H9V8H5V10ZM5 14H9V12H5V14ZM5 18H9V16H5V18ZM13 10H15V8H13V10ZM18 13V21H20V13H18ZM19 20H13V22H19V20ZM15 10C16.6569 10 18 11.3431 18 13H20C20 10.2386 17.7614 8 15 8V10ZM5 2H9V0H5V2ZM12 5V21H14V5H12ZM13 20H1V22H13V20ZM2 21V5H0V21H2ZM9 2C10.6569 2 12 3.34315 12 5H14C14 2.23858 11.7614 0 9 0V2ZM5 0C2.23858 0 0 2.23858 0 5H2C2 3.34315 3.34315 2 5 2V0Z" fill="#DDD9ED"></path>
  </symbol>
  <symbol fill="none" xmlns="http://www.w3.org/2000/svg" viewBox="0 0 22 18" id="email">
    <path d="M21 3L13.058 7.76521C11.7913 8.52525 10.2087 8.52525 8.94202 7.76521L1 3M5 17H17C19.2091 17 21 15.2091 21 13V5C21 2.79086 19.2091 1 17 1H5C2.79086 1 1 2.79086 1 5V13C1 15.2091 2.79086 17 5 17Z" stroke="#DDD9ED" stroke-width="2"></path>
  </symbol>

    <symbol fill="none" xmlns="http://www.w3.org/2000/svg" viewBox="0 0 18 12" id="check-green">
    <path d="M1 5.48591L6.11747 10.512C6.50649 10.8941 7.12987 10.8941 7.51889 10.512L17 1.2002" stroke="#00B627" stroke-width="2" stroke-linecap="round"></path>
  </symbol>
    <symbol fill="none" xmlns="http://www.w3.org/2000/svg" viewBox="0 0 18 12" id="check-orange">
    <path d="M1 5.48591L6.11747 10.512C6.50649 10.8941 7.12987 10.8941 7.51889 10.512L17 1.2002" stroke="#FEDE84" stroke-width="2" stroke-linecap="round"></path>
  </symbol>
   <symbol fill="none" xmlns="http://www.w3.org/2000/svg" viewBox="0 0 50 50" id="airplane">
    <path d="M48.5637 1.41196C46.0822 -1.07073 41.0633 -0.00258808 38.5841 2.47787L32.8251 8.16797C31.6244 9.36928 29.9025 9.89019 28.2365 9.55611L8.11879 5.52191C6.45281 5.18783 4.73092 5.70874 3.53021 6.91005L0.558535 9.88321C-0.468289 10.9106 -0.0132752 12.6646 1.38381 13.0645L22.025 18.9735L12.2574 28.746C11.6267 29.377 10.711 29.6304 9.84519 29.4135L5.45005 28.3123C4.58423 28.0953 3.66854 28.3487 3.03782 28.9798L0.857982 31.1607C-0.275109 32.2943 -0.0873813 34.1827 1.24692 35.073L7.7577 39.4173C8.87434 40.1624 9.83266 41.1212 10.5774 42.2384L14.9195 48.7524C15.8094 50.0874 17.6968 50.2752 18.8299 49.1416L21.0097 46.9606C21.6404 46.3296 21.8937 45.4135 21.6768 44.5472L20.5762 40.1499C20.3594 39.2836 20.6126 38.3675 21.2434 37.7364L31.011 27.9639L36.917 48.6155C37.3167 50.0133 39.0698 50.4685 40.0967 49.4412L43.0683 46.468C44.269 45.2667 44.7897 43.5439 44.4558 41.8771L40.4236 21.7493C40.0897 20.0825 40.6103 18.3597 41.811 17.1584L47.57 11.4683C50.0492 8.98786 51.0451 3.89465 48.5637 1.41196Z" fill="white"></path>
  </symbol>
  <symbol fill="none" xmlns="http://www.w3.org/2000/svg" viewBox="0 0 54 54" id="rocket">
    <path d="M23.0977 37.6835L15.961 30.5468M23.0977 37.6835C23.0977 37.6835 35.587 32.331 42.7237 25.1943C50.8974 17.0205 51.6445 2 51.6445 2C51.6445 2 36.6244 2.7475 28.4502 10.9209C21.3132 18.0572 15.961 30.5468 15.961 30.5468M23.0977 37.6835L27.3181 52L29.6632 51.3716C35.0833 49.9193 38.2781 44.325 36.7749 38.9189L34.7055 31.4495M15.961 30.5468L1.64453 26.3264L2.2729 23.9813C3.72519 18.5613 9.31949 15.3664 14.7256 16.8696L22.1949 18.9389M14.1768 46.6044C10.6085 50.1727 1.68762 51.9569 1.68762 51.9569C1.68762 51.9569 3.47179 43.036 7.04014 39.4677C9.01089 37.4969 12.2061 37.4969 14.1768 39.4677C16.1476 41.4384 16.1476 44.6336 14.1768 46.6044ZM39.156 18.0583C38.1706 19.0436 36.573 19.0436 35.5876 18.0583C34.6023 17.0729 34.6023 15.4753 35.5876 14.4899C36.573 13.5045 38.1706 13.5045 39.156 14.4899C40.1413 15.4753 40.1413 17.0729 39.156 18.0583Z" stroke="#6826F7" stroke-width="3" stroke-linejoin="round"></path>
  </symbol>
  <symbol fill="none" xmlns="http://www.w3.org/2000/svg" viewBox="0 0 54 54" id="paperPlane">
    <path d="M22.13 34.5718L20.8092 35.2827L22.13 34.5718ZM21.377 33.3066L20.2001 34.2366L21.377 33.3066ZM19.4282 31.87L18.7173 33.1908L18.7173 33.1908L19.4282 31.87ZM20.6934 32.623L19.7634 33.7999V33.7999L20.6934 32.623ZM50.2943 12.1156L51.7172 12.5903L50.2943 12.1156ZM51.8455 4.67275L50.4326 5.17627L51.8455 4.67275ZM41.8844 3.70569L42.3591 5.12861L41.8844 3.70569ZM49.3272 2.15448L48.8237 3.56745L49.3272 2.15448ZM10.3196 14.2352L9.84491 12.8122L10.3196 14.2352ZM2.61638 17.8287L3.89407 18.6146L2.61638 17.8287ZM9.26624 26.4002L9.97719 25.0794L9.26624 26.4002ZM2.29468 21.5441L3.6883 20.9893L2.29468 21.5441ZM39.7649 43.6804L38.3419 43.2058L39.7649 43.6804ZM36.1713 51.3836L35.3854 50.1059L36.1713 51.3836ZM27.5998 44.7338L28.9206 44.0228L27.5998 44.7338ZM32.4559 51.7053L33.0107 50.3117L32.4559 51.7053ZM34.005 22.1163C34.5908 21.5305 34.5908 20.5807 34.005 19.995C33.4193 19.4092 32.4695 19.4092 31.8837 19.995L34.005 22.1163ZM48.8714 11.6409L38.3419 43.2058L41.1878 44.1551L51.7172 12.5903L48.8714 11.6409ZM10.7942 15.6581L42.3591 5.12861L41.4097 2.28277L9.84491 12.8122L10.7942 15.6581ZM28.9206 44.0228L23.4508 33.8609L20.8092 35.2827L26.279 45.4447L28.9206 44.0228ZM20.1391 30.5492L9.97719 25.0794L8.55529 27.721L18.7173 33.1908L20.1391 30.5492ZM23.4508 33.8609C23.1236 33.253 22.88 32.7893 22.5539 32.3766L20.2001 34.2366C20.3256 34.3954 20.4335 34.5847 20.8092 35.2827L23.4508 33.8609ZM18.7173 33.1908C19.4153 33.5665 19.6046 33.6744 19.7634 33.7999L21.6234 31.4461C21.2107 31.12 20.747 30.8764 20.1391 30.5492L18.7173 33.1908ZM22.5539 32.3766C22.281 32.0313 21.9687 31.719 21.6234 31.4461L19.7634 33.7999C19.9255 33.928 20.072 34.0745 20.2001 34.2366L22.5539 32.3766ZM51.7172 12.5903C52.3852 10.5878 52.9206 8.98759 53.2186 7.72087C53.5113 6.47649 53.6512 5.27119 53.2585 4.16924L50.4326 5.17627C50.521 5.42458 50.5627 5.90984 50.2983 7.03388C50.0391 8.1356 49.5583 9.58172 48.8714 11.6409L51.7172 12.5903ZM42.3591 5.12861C44.4183 4.44169 45.8644 3.96087 46.9661 3.7017C48.0902 3.43727 48.5754 3.47896 48.8237 3.56745L49.8308 0.741515C48.7288 0.348834 47.5235 0.488676 46.2791 0.781414C45.0124 1.07941 43.4122 1.61477 41.4097 2.28277L42.3591 5.12861ZM53.2585 4.16924C52.6885 2.56987 51.4301 1.31145 49.8308 0.741515L48.8237 3.56745C49.5744 3.83496 50.165 4.42556 50.4326 5.17627L53.2585 4.16924ZM9.84491 12.8122C7.56953 13.5713 5.76506 14.1717 4.43798 14.7501C3.15012 15.3115 1.99375 15.9778 1.33869 17.0429L3.89407 18.6146C4.03132 18.3914 4.42292 18.0293 5.63676 17.5002C6.81138 16.9882 8.46235 16.4359 10.7942 15.6581L9.84491 12.8122ZM9.97719 25.0794C7.81347 23.9147 6.28194 23.0887 5.21279 22.3837C4.10788 21.6551 3.78488 21.2319 3.6883 20.9893L0.901063 22.0989C1.36364 23.2609 2.38895 24.1152 3.56129 24.8882C4.7694 25.6849 6.44407 26.5846 8.55529 27.721L9.97719 25.0794ZM1.33869 17.0429C0.402736 18.5647 0.240271 20.4392 0.901063 22.0989L3.6883 20.9893C3.37813 20.2102 3.45419 19.3298 3.89407 18.6146L1.33869 17.0429ZM38.3419 43.2058C37.5641 45.5376 37.0118 47.1886 36.4998 48.3632C35.9707 49.5771 35.6086 49.9687 35.3854 50.1059L36.9571 52.6613C38.0222 52.0062 38.6885 50.8499 39.2499 49.562C39.8283 48.2349 40.4287 46.4305 41.1878 44.1551L38.3419 43.2058ZM26.279 45.4447C27.4154 47.5559 28.3151 49.2306 29.1118 50.4387C29.8848 51.611 30.7391 52.6364 31.9011 53.0989L33.0107 50.3117C32.7681 50.2151 32.3449 49.8921 31.6163 48.7872C30.9113 47.7181 30.0853 46.1865 28.9206 44.0228L26.279 45.4447ZM35.3854 50.1059C34.6702 50.5458 33.7898 50.6219 33.0107 50.3117L31.9011 53.0989C33.5608 53.7597 35.4353 53.5973 36.9571 52.6613L35.3854 50.1059ZM31.8837 19.995L20.1239 31.7547L22.2453 33.8761L34.005 22.1163L31.8837 19.995Z" fill="#6826F7"></path>
  </symbol>
    <symbol xmlns="http://www.w3.org/2000/svg" viewBox="0 0 17 16" id="arrow-left">
    <path d="M4.441 4.158.595 8.004l3.853 3.853 3.854 3.854.701-.701.701-.702-2.649-2.649L4.406 9.01H17V6.998H4.406l2.649-2.649L9.704 1.7l-.694-.694a24.93 24.93 0 0 0-.708-.694c-.008 0-1.745 1.73-3.861 3.846" fill-rule="evenodd"></path>
  </symbol>
  <symbol xmlns="http://www.w3.org/2000/svg" viewBox="0 0 17 16" id="arrow-right">
    <path d="m7.99 1.005-.694.695 2.649 2.649 2.649 2.649H0V9.01h12.594l-2.649 2.649-2.649 2.649.694.694c.382.382.705.695.719.695.014 0 1.749-1.731 3.856-3.847l3.832-3.846-3.825-3.839C10.469 2.053 8.734.322 8.716.318c-.017-.004-.344.305-.726.687" fill-rule="evenodd"></path>
  </symbol>
  <symbol fill="none" xmlns="http://www.w3.org/2000/svg" viewBox="0 0 28 26" id="star">
    <path d="M21.8912 16.0935C21.5459 16.4281 21.3872 16.9121 21.4659 17.3868L22.6512 23.9468C22.7512 24.5028 22.5165 25.0655 22.0512 25.3868C21.5952 25.7201 20.9885 25.7601 20.4912 25.4935L14.5859 22.4135C14.3805 22.3041 14.1525 22.2455 13.9192 22.2388H13.5579C13.4325 22.2575 13.3099 22.2975 13.1979 22.3588L7.29118 25.4535C6.99918 25.6001 6.66852 25.6521 6.34452 25.6001C5.55518 25.4508 5.02852 24.6988 5.15785 23.9055L6.34452 17.3455C6.42318 16.8668 6.26452 16.3801 5.91918 16.0401L1.10452 11.3735C0.70185 10.9828 0.56185 10.3961 0.74585 9.86683C0.924517 9.33883 1.38052 8.9535 1.93118 8.86683L8.55785 7.9055C9.06185 7.8535 9.50452 7.54683 9.73118 7.0935L12.6512 1.10683C12.7205 0.973496 12.8099 0.85083 12.9179 0.74683L13.0379 0.653496C13.1005 0.584163 13.1725 0.52683 13.2525 0.480163L13.3979 0.42683L13.6245 0.333496H14.1859C14.6872 0.385496 15.1285 0.685496 15.3592 1.1335L18.3179 7.0935C18.5312 7.5295 18.9459 7.83216 19.4245 7.9055L26.0512 8.86683C26.6112 8.94683 27.0792 9.3335 27.2645 9.86683C27.4392 10.4015 27.2885 10.9881 26.8779 11.3735L21.8912 16.0935Z" fill="#FDC632"></path>
  </symbol>
    <symbol fill="none" xmlns="http://www.w3.org/2000/svg" viewBox="0 0 18 19" id="user">
    <path d="M8.64.018C7.611.107 6.734.443 5.941 1.051a6.49 6.49 0 0 0-.881.871c-.698.922-1.043 1.933-1.044 3.061 0 .493.036.803.142 1.231.478 1.928 2.087 3.396 4.077 3.719.309.05 1.221.05 1.53 0a5.066 5.066 0 0 0 3.707-2.706 5.354 5.354 0 0 0 .477-1.552 5.752 5.752 0 0 0-.107-1.91A5.086 5.086 0 0 0 11.63.753 5.053 5.053 0 0 0 9.765.064 8.206 8.206 0 0 0 8.64.018m1.14 2.081c.492.142.924.391 1.3.749a2.98 2.98 0 0 1 .574 3.534 3.01 3.01 0 0 1-3.895 1.346c-.565-.25-1.108-.767-1.413-1.346a2.992 2.992 0 0 1 .832-3.762 3.355 3.355 0 0 1 1.287-.578c.088-.016.369-.024.625-.018.364.008.514.024.69.075m-5.35 9.932c-2.037.241-3.742 1.712-4.255 3.672-.138.529-.148.644-.165 1.989l-.017 1.298h2.013l.011-1.267.01-1.268.082-.27a3.047 3.047 0 0 1 2.309-2.137c.23-.049.54-.053 4.582-.053s4.352.004 4.582.053a3.049 3.049 0 0 1 2.309 2.137l.081.27.011 1.268.011 1.267h2.012l-.014-1.267c-.009-.762-.028-1.352-.05-1.478-.183-1.095-.653-2.019-1.411-2.776a4.507 4.507 0 0 0-.955-.753 5.353 5.353 0 0 0-1.708-.647c-.243-.048-.601-.053-4.748-.057-2.467-.003-4.577.006-4.69.019" fill-rule="evenodd" fill="#DDD9ED"></path>
  </symbol>
   <symbol fill="none" xmlns="http://www.w3.org/2000/svg" viewBox="0 0 22 18" id="email-purple">
    <path d="M21 3L13.058 7.76521C11.7913 8.52525 10.2087 8.52525 8.94202 7.76521L1 3M5 17H17C19.2091 17 21 15.2091 21 13V5C21 2.79086 19.2091 1 17 1H5C2.79086 1 1 2.79086 1 5V13C1 15.2091 2.79086 17 5 17Z" stroke="#6826F7" stroke-width="2"></path>
  </symbol>
   <symbol fill="none" xmlns="http://www.w3.org/2000/svg" viewBox="0 0 20 20" id="phone">
    <path d="M11.9712 17.6676C10.8968 17.2155 9.87259 16.6528 8.8986 15.9998C7.93465 15.3468 7.04099 14.6133 6.22766 13.7895C5.40429 12.9657 4.67128 12.0715 4.0186 11.1171C3.36593 10.1526 2.80363 9.11778 2.35178 8.04277C1.61877 6.32478 1.16692 4.49627 1.00626 2.63762C0.925934 1.75351 1.62881 1 2.51243 1H5.54486C6.30799 1 6.95062 1.57266 7.03095 2.33622C7.08115 2.81846 7.16148 3.29066 7.28198 3.76286C7.42255 4.34557 7.60329 4.92828 7.8242 5.48085C8.03506 5.99324 7.98486 6.57595 7.64346 7.00796L7.01087 7.83179C6.7498 8.16333 6.71967 8.63553 6.96066 8.98717C7.49284 9.79091 8.10535 10.5344 8.78815 11.2175C9.55128 11.9811 10.3947 12.6643 11.3085 13.2369C11.4892 13.3475 11.7202 13.3374 11.8909 13.2068L12.9954 12.3629C13.4372 12.0313 14.0095 11.9811 14.5216 12.182C15.0839 12.4031 15.6563 12.5839 16.2387 12.7246C16.7106 12.8351 17.1826 12.9154 17.6645 12.9657C18.4277 13.0461 19 13.689 19 14.4526V17.4867C19 18.3708 18.2469 19.0741 17.3633 18.9937C16.6252 18.9299 14.0702 18.5818 11.9712 17.6676Z" stroke="#6826F7" stroke-width="2"></path>
  </symbol>
    <symbol fill="none" xmlns="http://www.w3.org/2000/svg" viewBox="0 0 18 22" id="location">
    <path d="M17 9C17 15 10 21 9 21C8 21 1 15 1 9C1 4.58172 4.58172 1 9 1C13.4183 1 17 4.58172 17 9Z" stroke="#6826F7" stroke-width="2" stroke-linecap="round" stroke-linejoin="round"></path>
    <path d="M12 9C12 10.6569 10.6569 12 9 12C7.34315 12 6 10.6569 6 9C6 7.34315 7.34315 6 9 6C10.6569 6 12 7.34315 12 9Z" stroke="#6826F7" stroke-width="2" stroke-linecap="round" stroke-linejoin="round"></path>
  </symbol>

    <symbol fill="none" xmlns="http://www.w3.org/2000/svg" viewBox="0 0 32 32" id="twitter">
    <path d="M16 32C24.8366 32 32 24.8366 32 16C32 7.16344 24.8366 0 16 0C7.16344 0 0 7.16344 0 16C0 24.8366 7.16344 32 16 32Z" fill="#6826F7"></path>
    <path d="M25.8006 11.4985C25.1149 11.8026 24.3774 12.0082 23.6038 12.1C24.3936 11.6269 24.9997 10.8782 25.2858 9.98459C24.5468 10.423 23.7279 10.741 22.8572 10.9124C22.1595 10.1694 21.1655 9.70508 20.0649 9.70508C17.9532 9.70508 16.2404 11.4178 16.2404 13.5295C16.2404 13.8293 16.2744 14.1211 16.34 14.4011C13.1616 14.2417 10.3433 12.7192 8.45693 10.4047C8.12779 10.9694 7.93898 11.6269 7.93898 12.3276C7.93898 13.6542 8.61465 14.8253 9.64029 15.5109C9.01367 15.4912 8.42356 15.3193 7.90817 15.032C7.90789 15.0483 7.90789 15.0646 7.90789 15.0805C7.90789 16.9336 9.22672 18.4792 10.9759 18.8303C10.6554 18.9181 10.3168 18.9646 9.96857 18.9646C9.72157 18.9646 9.48228 18.9409 9.24897 18.8964C9.73555 20.4155 11.1476 21.5213 12.8216 21.5523C11.5124 22.5783 9.86361 23.1895 8.07132 23.1895C7.76328 23.1895 7.45811 23.1715 7.15948 23.1359C8.8511 24.2214 10.8619 24.8543 13.0215 24.8543C20.0561 24.8543 23.903 19.0268 23.903 13.9725C23.903 13.8068 23.8993 13.6416 23.8919 13.4779C24.6397 12.9388 25.288 12.2655 25.8006 11.4985Z" fill="white"></path>
  </symbol>

    <symbol fill="none" xmlns="http://www.w3.org/2000/svg" viewBox="0 0 32 32" id="facebook">
    <path d="M16 0C7.1808 0 0 7.1808 0 16C0 24.8192 7.1808 32 16 32C24.8192 32 32 24.8256 32 16C32 7.1744 24.8256 0 16 0ZM20.4352 9.4912C20.4352 9.6256 20.3264 9.7344 20.192 9.7344H18.2656C17.792 9.7344 17.408 10.1184 17.408 10.592V12.608H20.1472C20.1536 12.608 20.16 12.608 20.1664 12.608C20.3008 12.6208 20.3968 12.736 20.384 12.8704L20.1408 15.712C20.128 15.84 20.0256 15.936 19.8976 15.936H17.4016V25.3632C17.4016 25.4976 17.2928 25.6064 17.1584 25.6064H13.7152C13.5808 25.6064 13.472 25.4976 13.472 25.3632V16.0768V15.9232H11.7504C11.616 15.9232 11.5072 15.8144 11.5072 15.68V12.8384C11.5072 12.704 11.616 12.5952 11.7504 12.5952H13.472V9.856C13.472 7.9488 15.0208 6.4 16.928 6.4H20.1792C20.3136 6.4 20.4224 6.5088 20.4224 6.6432V9.4912H20.4352Z" fill="#6826F7"></path>
  </symbol>
  <symbol fill="none" xmlns="http://www.w3.org/2000/svg" viewBox="0 0 32 32" id="instagram">
    <path d="M16 32C24.8366 32 32 24.8366 32 16C32 7.16344 24.8366 0 16 0C7.16344 0 0 7.16344 0 16C0 24.8366 7.16344 32 16 32Z" fill="#6826F7"></path>
    <path d="M20.8 8.2002H11.2C9.53334 8.2002 8.20001 9.53352 8.20001 11.2002V20.8002C8.20001 22.4669 9.53334 23.8002 11.2 23.8002H20.8C22.4667 23.8002 23.8 22.4669 23.8 20.8002V11.2002C23.8 9.53352 22.4667 8.2002 20.8 8.2002ZM21.6667 10.0002H22V12.6669H19.3334V10.0002H21.6667ZM13.8 14.4002C14.2667 13.7335 15.1334 13.2669 16 13.2669C16.8667 13.2669 17.7334 13.7335 18.2 14.4002C18.5334 14.8669 18.7334 15.4002 18.7334 16.0002C18.7334 17.5335 17.4667 18.7335 16 18.7335C14.5334 18.7335 13.2667 17.5335 13.2667 16.0002C13.2667 15.4002 13.4667 14.8669 13.8 14.4002ZM22.2667 20.8002C22.2667 21.6002 21.6 22.2669 20.8 22.2669H11.2C10.4 22.2669 9.73335 21.6002 9.73335 20.8002V14.4002H12.0667C11.8667 14.8669 11.7334 15.4669 11.7334 16.0002C11.7334 18.3335 13.6667 20.2669 16 20.2669C18.3334 20.2669 20.2667 18.3335 20.2667 16.0002C20.2667 15.4669 20.1333 14.8669 19.9334 14.4002H22.2667L22.2667 20.8002Z" fill="white"></path>
  </symbol>
    <symbol fill="none" xmlns="http://www.w3.org/2000/svg" viewBox="0 0 44 54" id="management">
    <path
      d="M19.5 25.5C18.6716 25.5 18 26.1716 18 27C18 27.8284 18.6716 28.5 19.5 28.5V25.5ZM27 28.5C27.8284 28.5 28.5 27.8284 28.5 27C28.5 26.1716 27.8284 25.5 27 25.5V28.5ZM19.5 35.5C18.6716 35.5 18 36.1716 18 37C18 37.8284 18.6716 38.5 19.5 38.5V35.5ZM32 38.5C32.8284 38.5 33.5 37.8284 33.5 37C33.5 36.1716 32.8284 35.5 32 35.5V38.5ZM12 25.5C11.1716 25.5 10.5 26.1716 10.5 27C10.5 27.8284 11.1716 28.5 12 28.5V25.5ZM12.025 28.5C12.8534 28.5 13.525 27.8284 13.525 27C13.525 26.1716 12.8534 25.5 12.025 25.5V28.5ZM12 35.5C11.1716 35.5 10.5 36.1716 10.5 37C10.5 37.8284 11.1716 38.5 12 38.5V35.5ZM12.025 38.5C12.8534 38.5 13.525 37.8284 13.525 37C13.525 36.1716 12.8534 35.5 12.025 35.5V38.5ZM40.5 17V42H43.5V17H40.5ZM32 50.5H12V53.5H32V50.5ZM3.5 42V17H0.5V42H3.5ZM12 50.5C7.30558 50.5 3.5 46.6944 3.5 42H0.5C0.5 48.3513 5.64873 53.5 12 53.5V50.5ZM40.5 42C40.5 46.6944 36.6944 50.5 32 50.5V53.5C38.3513 53.5 43.5 48.3513 43.5 42H40.5ZM43.5 17C43.5 10.6487 38.3513 5.5 32 5.5V8.5C36.6944 8.5 40.5 12.3056 40.5 17H43.5ZM3.5 17C3.5 12.3056 7.30558 8.5 12 8.5V5.5C5.64873 5.5 0.5 10.6487 0.5 17H3.5ZM15.75 3.5H28.25V0.5H15.75V3.5ZM30.5 5.75V8.25H33.5V5.75H30.5ZM28.25 10.5H15.75V13.5H28.25V10.5ZM13.5 8.25V5.75H10.5V8.25H13.5ZM15.75 10.5C14.5074 10.5 13.5 9.49264 13.5 8.25H10.5C10.5 11.1495 12.8505 13.5 15.75 13.5V10.5ZM30.5 8.25C30.5 9.49264 29.4926 10.5 28.25 10.5V13.5C31.1495 13.5 33.5 11.1495 33.5 8.25H30.5ZM28.25 3.5C29.4926 3.5 30.5 4.50736 30.5 5.75H33.5C33.5 2.85051 31.1495 0.5 28.25 0.5V3.5ZM15.75 0.5C12.8505 0.5 10.5 2.85051 10.5 5.75H13.5C13.5 4.50736 14.5074 3.5 15.75 3.5V0.5ZM19.5 28.5H27V25.5H19.5V28.5ZM19.5 38.5H32V35.5H19.5V38.5ZM12 28.5H12.025V25.5H12V28.5ZM12 38.5H12.025V35.5H12V38.5Z"
      fill="#00B627"></path>
  </symbol>
    <symbol fill="none" xmlns="http://www.w3.org/2000/svg" viewBox="0 0 58 48" id="collaboration">
    <path
      d="M1.5 46.5V41.5C1.5 35.9772 5.97715 31.5 11.5 31.5H31.5C37.0228 31.5 41.5 35.9772 41.5 41.5V46.5M56.5 46.5V41.5C56.5 35.9772 52.0228 31.5 46.5 31.5H45.875M35.8652 1.51982C36.0751 1.50667 36.2868 1.5 36.5 1.5C42.0228 1.5 46.5 5.97715 46.5 11.5C46.5 17.0228 42.0228 21.5 36.5 21.5C36.2868 21.5 36.0751 21.4933 35.8652 21.4802M31.5 11.5C31.5 17.0228 27.0228 21.5 21.5 21.5C15.9772 21.5 11.5 17.0228 11.5 11.5C11.5 5.97715 15.9772 1.5 21.5 1.5C27.0228 1.5 31.5 5.97715 31.5 11.5Z"
      stroke="#FCAF1A" stroke-width="3" stroke-linecap="round"></path>
  </symbol>

  <symbol fill="none" xmlns="http://www.w3.org/2000/svg" viewBox="0 0 44 48" id="ui">
    <path
      d="M24.5 38.6875L30.0972 44.1848C30.5227 44.6027 31.2046 44.6027 31.63 44.1848L42 34M2 46.5V41.5C2 35.9772 6.47715 31.5 12 31.5H17M32 11.5C32 17.0228 27.5228 21.5 22 21.5C16.4772 21.5 12 17.0228 12 11.5C12 5.97715 16.4772 1.5 22 1.5C27.5228 1.5 32 5.97715 32 11.5Z"
      stroke="#6826F7" stroke-width="3" stroke-linecap="round"></path>
  </symbol>
  <symbol fill="none" xmlns="http://www.w3.org/2000/svg" viewBox="0 0 54 54" id="workflow">
    <path
      d="M38.0511 42.4477C37.46 41.8672 36.5103 41.8758 35.9298 42.4668C35.3493 43.0578 35.3579 44.0075 35.9489 44.588L38.0511 42.4477ZM53.0511 40.5702C53.6421 39.9897 53.6507 39.04 53.0702 38.4489C52.4897 37.8579 51.54 37.8493 50.9489 38.4298L53.0511 40.5702ZM41.7976 48.2298L40.7466 49.3L41.7976 48.2298ZM43.1115 48.2298L44.1625 49.3L43.1115 48.2298ZM27 53.5C27.8284 53.5 28.5 52.8284 28.5 52C28.5 51.1716 27.8284 50.5 27 50.5V53.5ZM50.5 27C50.5 27.8284 51.1716 28.5 52 28.5C52.8284 28.5 53.5 27.8284 53.5 27H50.5ZM28.5 14.5C28.5 13.6716 27.8284 13 27 13C26.1716 13 25.5 13.6716 25.5 14.5H28.5ZM28.0114 29.3672L27.1182 30.5723H27.1182L28.0114 29.3672ZM32.3568 34.4551C33.0224 34.9484 33.9618 34.8087 34.4551 34.1432C34.9484 33.4776 34.8087 32.5382 34.1432 32.0449L32.3568 34.4551ZM35.9489 44.588L40.7466 49.3L42.8487 47.1596L38.0511 42.4477L35.9489 44.588ZM44.1625 49.3L53.0511 40.5702L50.9489 38.4298L42.0604 47.1596L44.1625 49.3ZM40.7466 49.3C41.6948 50.2313 43.2143 50.2313 44.1625 49.3L42.0604 47.1596C42.2792 46.9447 42.6299 46.9447 42.8487 47.1596L40.7466 49.3ZM27 50.5C14.0213 50.5 3.5 39.9787 3.5 27H0.5C0.5 41.6355 12.3645 53.5 27 53.5V50.5ZM3.5 27C3.5 14.0213 14.0213 3.5 27 3.5V0.5C12.3645 0.5 0.5 12.3645 0.5 27H3.5ZM27 3.5C39.9787 3.5 50.5 14.0213 50.5 27H53.5C53.5 12.3645 41.6355 0.5 27 0.5V3.5ZM25.5 14.5V27.3588H28.5V14.5H25.5ZM27.1182 30.5723L32.3568 34.4551L34.1432 32.0449L28.9045 28.1622L27.1182 30.5723ZM25.5 27.3588C25.5 28.6258 26.1003 29.8179 27.1182 30.5723L28.9045 28.1622C28.6501 27.9736 28.5 27.6755 28.5 27.3588H25.5Z"
      fill="#FC4130"></path>
  </symbol>
  <symbol fill="none" xmlns="http://www.w3.org/2000/svg" viewBox="0 0 44 54" id="analytics">
    <path
      d="M27 2H12C6.47715 2 2 6.47715 2 12V42C2 47.5228 6.47715 52 12 52H32C37.5228 52 42 47.5228 42 42V17M27 2V12C27 14.7614 29.2386 17 32 17H42M27 2L42 17M12 42V37M22 42L22 27M32 42L32 32"
      stroke="#1977FB" stroke-width="3" stroke-linecap="round"></path>
  </symbol>
  <symbol fill="none" xmlns="http://www.w3.org/2000/svg" viewBox="0 0 54 54" id="reminders">
    <path
      d="M3.35176 51.0348C2.81871 51.669 2.90068 52.6152 3.53483 53.1482C4.16899 53.6813 5.11519 53.5993 5.64824 52.9652L3.35176 51.0348ZM0.93934 8.43934C0.353553 9.02513 0.353553 9.97487 0.93934 10.5607C1.52513 11.1464 2.47487 11.1464 3.06066 10.5607L0.93934 8.43934ZM10.5607 3.06066C11.1464 2.47487 11.1464 1.52513 10.5607 0.93934C9.97487 0.353553 9.02513 0.353553 8.43934 0.93934L10.5607 3.06066ZM48.3518 52.9652C48.8848 53.5993 49.831 53.6813 50.4652 53.1482C51.0993 52.6152 51.1813 51.669 50.6482 51.0348L48.3518 52.9652ZM45.5607 0.93934C44.9749 0.353553 44.0251 0.353553 43.4393 0.93934C42.8536 1.52513 42.8536 2.47487 43.4393 3.06066L45.5607 0.93934ZM50.9393 10.5607C51.5251 11.1464 52.4749 11.1464 53.0607 10.5607C53.6464 9.97487 53.6464 9.02513 53.0607 8.43934L50.9393 10.5607ZM18.0609 27.0396C17.4753 26.4537 16.5255 26.4534 15.9396 27.0391C15.3537 27.6247 15.3534 28.5745 15.9391 29.1604L18.0609 27.0396ZM38.0561 23.8152C38.6444 23.2319 38.6485 22.2822 38.0652 21.6939C37.4819 21.1056 36.5322 21.1015 35.9439 21.6848L38.0561 23.8152ZM23.3968 34.5L22.3359 35.5604L22.3458 35.5702L23.3968 34.5ZM25.1486 34.5L26.1997 35.5702L26.2047 35.5652L25.1486 34.5ZM6 28.25C6 16.652 15.402 7.25 27 7.25V4.25C13.7452 4.25 3 14.9952 3 28.25H6ZM27 7.25C38.598 7.25 48 16.652 48 28.25H51C51 14.9952 40.2548 4.25 27 4.25V7.25ZM3.06066 10.5607L10.5607 3.06066L8.43934 0.93934L0.93934 8.43934L3.06066 10.5607ZM43.4393 3.06066L50.9393 10.5607L53.0607 8.43934L45.5607 0.93934L43.4393 3.06066ZM41.7617 45.1251L48.3518 52.9652L50.6482 51.0348L44.0581 43.1947L41.7617 45.1251ZM48 28.25C48 34.0494 45.6511 39.2973 41.8492 43.0992L43.9706 45.2206C48.3121 40.8791 51 34.877 51 28.25H48ZM41.8492 43.0992C38.0473 46.9011 32.7994 49.25 27 49.25V52.25C33.627 52.25 39.6291 49.5621 43.9706 45.2206L41.8492 43.0992ZM5.64824 52.9652L12.2383 45.1251L9.94186 43.1947L3.35176 51.0348L5.64824 52.9652ZM27 49.25C21.2006 49.25 15.9527 46.9011 12.1508 43.0992L10.0294 45.2206C14.3709 49.5621 20.373 52.25 27 52.25V49.25ZM12.1508 43.0992C8.34886 39.2973 6 34.0494 6 28.25H3C3 34.877 5.68793 40.8791 10.0294 45.2206L12.1508 43.0992ZM15.9391 29.1604L22.3359 35.5604L24.4578 33.4396L18.0609 27.0396L15.9391 29.1604ZM26.2047 35.5652L38.0561 23.8152L35.9439 21.6848L24.0925 33.4348L26.2047 35.5652ZM22.3458 35.5702C23.4156 36.6209 25.1299 36.6209 26.1997 35.5702L24.0976 33.4298C24.1948 33.3343 24.3507 33.3343 24.4479 33.4298L22.3458 35.5702Z"
      fill="#D400F9"></path>
  </symbol>

 
  <symbol fill="none" xmlns="http://www.w3.org/2000/svg" viewBox="0 0 22 22" id="comban">
    <path fill-rule="evenodd" clip-rule="evenodd" d="M0 3C0 1.34315 1.34315 0 3 0H7C8.65685 0 10 1.34315 10 3V11C10 12.6569 8.65685 14 7 14H3C1.34315 14 0 12.6569 0 11V3ZM3 2C2.44772 2 2 2.44772 2 3V11C2 11.5523 2.44772 12 3 12H7C7.55228 12 8 11.5523 8 11V3C8 2.44772 7.55228 2 7 2H3ZM12 3C12 1.34315 13.3431 0 15 0H19C20.6569 0 22 1.34315 22 3V19C22 20.6569 20.6569 22 19 22H15C13.3431 22 12 20.6569 12 19V3ZM15 2C14.4477 2 14 2.44772 14 3V19C14 19.5523 14.4477 20 15 20H19C19.5523 20 20 19.5523 20 19V3C20 2.44772 19.5523 2 19 2H15Z" fill="#6826F7"></path>
  </symbol>


</svg>


