<svg width="119" height="36" viewBox="0 0 119 36" fill="none" xmlns="http://www.w3.org/2000/svg">
<path fill-rule="evenodd" clip-rule="evenodd" d="M17.6563 17.2328C17.5663 17.1025 17.4752 16.9766 17.385 16.852C16.8216 16.0739 16.2932 15.3441 16.2932 13.8689V8.14426C16.2932 7.94084 16.2944 7.73909 16.2957 7.53915V7.53906C16.3092 5.36073 16.3215 3.39708 14.693 1.82951C13.2706 0.472131 10.9593 0 9.18132 0C5.68466 0 1.77314 1.29836 0.943423 5.60656C0.884158 6.07869 1.18049 6.31475 1.47681 6.37377L5.03274 6.72787C5.38833 6.72787 5.62539 6.37377 5.68466 6.07869C5.98098 4.60328 7.22556 3.89508 8.64793 3.89508C9.41838 3.89508 10.2481 4.19016 10.7222 4.83934C11.1744 5.4898 11.1581 6.30994 11.1426 7.08397V7.08399C11.1398 7.22292 11.1371 7.36037 11.1371 7.49508V7.96721C10.8449 7.99954 10.5405 8.03076 10.2276 8.06285C8.25615 8.26505 5.95021 8.50156 4.26229 9.26557C1.95094 10.2689 0.291504 12.2754 0.291504 15.2852C0.291504 19.0623 2.72139 21.0098 5.80319 21.0098C8.41086 21.0098 9.83323 20.4197 11.8483 18.3541C11.9316 18.4749 12.0082 18.5879 12.081 18.6953C12.5773 19.4278 12.8964 19.8988 13.9818 20.7738C14.2781 20.8918 14.6337 20.8918 14.8708 20.7148C15.582 20.0656 16.9451 18.8852 17.6563 18.2951C17.9526 18 17.8933 17.5869 17.6563 17.2328ZM10.4259 15.6393C9.83323 16.6426 8.94425 17.2918 7.87748 17.2918C6.45511 17.2918 5.62539 16.2295 5.62539 14.6361C5.62539 11.5082 8.41086 10.977 11.0778 10.977V11.7443L11.0799 11.794C11.1383 13.1883 11.1873 14.3562 10.4259 15.6393ZM58.3511 8.12187C58.664 8.08978 58.9684 8.05856 59.2606 8.02623L59.3791 7.61311C59.3791 7.53339 59.3796 7.45271 59.3801 7.37134V7.37116C59.385 6.54895 59.3903 5.65545 58.905 4.95738C58.4309 4.3082 57.6012 4.01311 56.8307 4.01311C55.4083 4.01311 54.1638 4.72131 53.8674 6.19672C53.8082 6.4918 53.5711 6.8459 53.2155 6.8459L49.6596 6.4918C49.3633 6.43279 49.0669 6.19672 49.1262 5.72459C49.9559 1.41639 53.8674 0.118033 57.3641 0.118033C59.1421 0.118033 61.4534 0.590164 62.8758 1.94754C64.5042 3.51511 64.492 5.47876 64.4784 7.6571L64.4784 7.65899C64.4772 7.85834 64.4759 8.05949 64.4759 8.26229V13.9869C64.4759 15.4621 65.0044 16.192 65.5677 16.9701L65.5679 16.9703C65.6581 17.0948 65.7491 17.2206 65.8391 17.3508C66.0761 17.6459 66.1354 18.059 65.8391 18.2951C65.1279 18.8852 63.7648 20.0656 63.0536 20.7148C62.8165 20.8918 62.4609 20.8918 62.1646 20.7738C61.0792 19.8988 60.7601 19.4278 60.2638 18.6953C60.191 18.5879 60.1144 18.4749 60.031 18.3541C58.016 20.4197 56.5936 21.0098 53.986 21.0098C50.9042 21.0098 48.4743 19.0623 48.4743 15.2852C48.4743 12.3344 50.0744 10.3279 52.3858 9.32459C54.0737 8.56058 56.3797 8.32407 58.3511 8.12187ZM56.0603 17.2918C57.0678 17.2918 58.016 16.6426 58.6087 15.6393C59.2685 14.4347 59.2651 13.3317 59.2612 12.0475V12.0471V12.0466C59.2609 11.947 59.2606 11.8462 59.2606 11.7443V10.977C56.5936 10.977 53.8082 11.5082 53.8082 14.6361C53.8082 16.2295 54.6379 17.2918 56.0603 17.2918ZM24.8866 20.7148H21.2122C20.8566 20.6557 20.5603 20.4197 20.501 20.0656V1.23934C20.501 0.885246 20.7973 0.590164 21.2122 0.590164H24.6496C25.0052 0.64918 25.3015 0.885246 25.3015 1.23934V3.71803H25.3608C26.309 1.35738 27.9684 0.236066 30.2205 0.236066C32.4726 0.236066 33.9543 1.35738 34.9618 3.71803C35.8507 1.35738 37.8658 0.236066 40.0586 0.236066C41.5995 0.236066 43.3182 0.885246 44.3257 2.30164C45.3435 3.66986 45.3125 5.56022 45.2835 7.33757V7.33767V7.33777V7.33787V7.33797C45.2787 7.63041 45.2739 7.91979 45.2739 8.20328V20.0656C45.2739 20.4197 44.9776 20.7148 44.5628 20.7148H40.8883C40.5327 20.7148 40.2364 20.4197 40.2364 20.0656V10.0918C40.2364 9.94689 40.2382 9.76748 40.2403 9.566C40.2499 8.61872 40.2645 7.18347 40.1179 6.55082C39.8808 5.31148 39.0511 4.95738 37.9843 4.95738C37.0953 4.95738 36.1471 5.54754 35.7915 6.4918C35.4209 7.3352 35.4286 8.69651 35.4345 9.73466C35.4352 9.85881 35.4359 9.97833 35.4359 10.0918V20.0656C35.4359 20.4197 35.1396 20.7148 34.7247 20.7148H31.0503C30.6947 20.7148 30.3983 20.4197 30.3983 20.0656V10.0918C30.3983 9.86989 30.4022 9.63767 30.4062 9.39972V9.39964V9.39956V9.39948V9.39939C30.4403 7.35934 30.4814 4.89836 28.1462 4.89836C25.5868 4.89836 25.5928 7.67039 25.5974 9.82391C25.5976 9.91438 25.5978 10.0038 25.5978 10.0918V20.0656C25.5978 20.4197 25.3015 20.7148 24.8866 20.7148ZM82.0778 15.6393C79.9442 14.459 77.5143 14.1049 75.203 14.1639L81.4851 5.25246C82.0778 4.42623 82.3741 3.9541 82.3741 3.54098V1.23934C82.3741 0.82623 82.0778 0.590164 81.6629 0.590164H69.5728C69.2172 0.590164 68.9208 0.885246 68.9208 1.23934V3.89508C68.9208 4.3082 69.2172 4.54426 69.632 4.54426H75.9142L68.6838 14.8721C68.2689 15.5213 68.2689 16.2885 68.2689 16.7016V19.4164C68.2689 19.8295 68.6838 20.2426 69.0986 20.0066C73.188 17.823 78.107 18.059 81.8407 20.0066C82.3148 20.2426 82.7297 19.7705 82.7297 19.4164V16.5246C82.6704 16.2885 82.5519 15.8754 82.0778 15.6393ZM68.743 24.3738C68.0319 24.4328 67.9726 23.8426 68.5653 23.4295C72.4768 20.6557 78.996 21.482 79.7072 22.4852C80.4776 23.3705 79.4701 29.8623 75.7956 32.9311C75.2622 33.4033 74.7289 33.1672 74.9659 32.518L75.0085 32.412L75.0086 32.4119C75.8585 30.297 77.6772 25.7714 76.8031 24.6689C75.949 23.5915 71.3195 24.0941 69.0131 24.3445L68.743 24.3738ZM49.1262 31.1607C56.7714 31.1607 65.1871 29.5672 72.8916 26.3213C74.0769 25.7902 75.0252 27.0295 73.8399 27.9738C66.9651 32.9902 56.9492 35.7049 48.3558 35.7049C36.3249 35.7049 25.4793 31.2787 17.2414 23.9016C16.5895 23.3115 17.1821 22.4852 17.9526 22.9574C26.8424 28.0918 37.8065 31.1607 49.1262 31.1607ZM84.5076 10.623C84.5076 4.78033 87.4117 0.236066 92.7455 0.236066C98.198 0.236066 101.102 4.89836 101.161 10.8C101.161 16.5246 97.9016 21.0689 92.7455 21.0689C87.4117 21.0689 84.5076 16.4066 84.5076 10.623ZM89.9007 10.1683C89.8996 12.5209 89.8973 17.2328 92.7455 17.2328C95.5903 17.2328 95.7088 13.2787 95.7681 10.859C95.7681 9.32459 95.7088 7.37705 95.2347 5.90164C94.8198 4.60328 93.9901 4.07213 92.8048 4.07213C90.0786 4.07213 89.9008 7.73115 89.9008 10.0328L89.9007 10.1683ZM108.747 4.01311C109.755 1.47541 111.177 0.236066 113.725 0.236066C115.326 0.236066 116.926 0.82623 118.052 2.5377C119 4.01311 119 6.55082 119 8.38033V20.1836C118.941 20.5377 118.645 20.7738 118.289 20.7738H114.614C114.259 20.7738 114.022 20.4787 113.963 20.1836V9.97377C113.963 9.81549 113.964 9.65166 113.965 9.48407C113.983 7.46459 114.004 4.89836 111.651 4.89836C110.762 4.89836 109.933 5.48852 109.518 6.37377C108.984 7.49508 108.925 8.67541 108.925 9.91475V20.0066C108.925 20.3607 108.629 20.6557 108.214 20.6557H104.539C104.184 20.6557 103.887 20.3607 103.887 20.0066V1.23934C103.947 0.944262 104.243 0.64918 104.599 0.64918H107.977C108.273 0.64918 108.569 0.885246 108.629 1.18033V4.01311H108.747Z" fill="#A29FB2"/>
</svg>