<svg width="117" height="36" viewBox="0 0 117 36" fill="none" xmlns="http://www.w3.org/2000/svg">
<path fill-rule="evenodd" clip-rule="evenodd" d="M61.7349 9.02894C61.7349 10.3023 60.6882 11.4019 59.3507 11.4019C58.0132 11.4019 56.9664 10.3601 56.9664 9.02894C56.9664 7.69775 57.955 6.65595 59.3507 6.65595C60.7463 6.7717 61.7349 7.81351 61.7349 9.02894ZM52.0235 13.7749C52.0235 14.0064 52.0235 14.3537 52.0235 14.3537C52.0235 14.3537 50.9186 12.9068 48.5344 12.9068C44.5801 12.9068 41.498 15.9164 41.498 20.0257C41.498 24.135 44.5219 27.1447 48.5344 27.1447C50.9768 27.1447 52.0235 25.6399 52.0235 25.6399V26.2765C52.0235 26.5659 52.2561 26.7974 52.5469 26.7974H55.4545V13.254C55.4545 13.254 52.7795 13.254 52.5469 13.254C52.2561 13.254 52.0235 13.5434 52.0235 13.7749ZM52.0235 22.4566C51.5002 23.2669 50.3953 23.9614 49.1159 23.9614C46.7899 23.9614 45.0453 22.5145 45.0453 20.0836C45.0453 17.6527 46.848 16.2058 49.1159 16.2058C50.3953 16.2058 51.5583 16.9003 52.0235 17.7106V22.4566ZM57.6643 13.254H61.1534V26.7974H57.6643V13.254ZM109.594 12.9068C107.21 12.9068 106.105 14.3537 106.105 14.3537V6.7717H102.616V26.8553C102.616 26.8553 105.291 26.8553 105.523 26.8553C105.814 26.8553 106.047 26.6238 106.047 26.3344V25.6977C106.047 25.6977 107.151 27.2026 109.536 27.2026C113.49 27.2026 116.572 24.1929 116.572 20.0836C116.63 15.9164 113.548 12.9068 109.594 12.9068ZM109.012 23.9035C107.675 23.9035 106.628 23.209 106.105 22.3987V17.537C106.628 16.8424 107.791 16.0322 109.012 16.0322C111.338 16.0322 113.083 17.4791 113.083 19.91C113.083 22.3408 111.338 23.9035 109.012 23.9035ZM100.813 18.8103V26.9132H97.3238V19.2154C97.3238 16.9582 96.626 16.09 94.6488 16.09C93.6021 16.09 92.4972 16.6109 91.7994 17.4212V26.8553H88.3103V13.254H91.0434C91.3342 13.254 91.5668 13.4855 91.5668 13.7749V14.3537C92.5554 13.3119 93.951 12.9068 95.2885 12.9068C96.8004 12.9068 98.0798 13.3119 99.0684 14.1801C100.348 15.2219 100.813 16.4952 100.813 18.8103ZM79.8783 12.9068C77.494 12.9068 76.3892 14.3537 76.3892 14.3537V6.7717H72.9V26.8553C72.9 26.8553 75.575 26.8553 75.8076 26.8553C76.0984 26.8553 76.331 26.6238 76.331 26.3344V25.6977C76.331 25.6977 77.4359 27.2026 79.8201 27.2026C83.7744 27.2026 86.8565 24.1929 86.8565 20.0836C86.9146 15.9164 83.8326 12.9068 79.8783 12.9068ZM79.2967 23.9035C77.9592 23.9035 76.9125 23.209 76.3891 22.3987V17.537C76.9125 16.8424 78.0755 16.0322 79.2967 16.0322C81.6228 16.0322 83.3674 17.4791 83.3674 19.91C83.3674 22.3408 81.6228 23.9035 79.2967 23.9035ZM69.8761 12.9068C70.9229 12.9068 71.4462 13.0804 71.4462 13.0804V16.2637C71.4462 16.2637 68.5387 15.2797 66.7359 17.3633V26.8553H63.2468V13.254C63.2468 13.254 65.9218 13.254 66.1544 13.254C66.4452 13.254 66.6778 13.4855 66.6778 13.7749V14.3537C67.3756 13.6013 68.8294 12.9068 69.8761 12.9068ZM33.7639 25.6399C33.5894 25.2347 33.4149 24.7138 33.2405 24.3666C32.9497 23.7299 32.659 23.0932 32.4264 22.5145L32.3682 22.4566C29.8677 17.074 27.1927 11.5756 24.3433 6.13505L24.227 5.90354C23.9362 5.38264 23.6454 4.80386 23.3547 4.22508C23.0058 3.58842 22.6569 2.89389 22.0753 2.25723C20.9123 0.81029 19.2259 0 17.4813 0C15.6786 0 14.0504 0.810289 12.8292 2.14148C12.2477 2.83601 11.8406 3.47267 11.4917 4.1672C11.2009 4.74598 10.9102 5.32476 10.6194 5.84566L10.5031 6.07717C7.71183 11.4598 4.97869 16.9582 2.47817 22.3987L2.42001 22.4566C2.18741 23.0354 1.89665 23.672 1.60589 24.3087C1.43143 24.7138 1.25698 25.119 1.08252 25.582C0.617307 26.9132 0.442851 28.1865 0.675459 29.4598C1.08252 32.1801 2.88523 34.4373 5.38576 35.4212C6.31619 35.8264 7.30477 36 8.29335 36C8.58411 36 8.93302 35.9421 9.22378 35.9421C10.445 35.8264 11.6662 35.4212 12.8292 34.7267C14.3411 33.9164 15.7368 32.701 17.3069 30.9646C18.877 32.701 20.3308 33.8585 21.7846 34.7267C23.0058 35.4212 24.227 35.8264 25.39 35.9421C25.6807 36 26.0297 36 26.3204 36C27.309 36 28.3557 35.8264 29.228 35.4212C31.7867 34.4373 33.5312 32.1222 33.9383 29.4598C34.3454 28.1865 34.2291 26.9711 33.7639 25.6399ZM17.4232 27.492C15.446 25.0611 14.2248 22.746 13.7596 20.7781C13.5852 19.9678 13.527 19.2154 13.6433 18.5788C13.7015 18 13.9341 17.4791 14.2248 17.074C14.9227 16.09 16.0857 15.5113 17.4232 15.5113C18.7607 15.5113 19.9819 16.09 20.6215 17.074C20.9123 17.4791 21.1449 18 21.2031 18.5788C21.3194 19.2154 21.2612 19.9678 21.0868 20.7781C20.6215 22.6881 19.3422 25.0032 17.4232 27.492ZM31.8448 29.1704C31.6122 31.0225 30.3329 32.6431 28.5302 33.3955C27.6579 33.7428 26.7275 33.8585 25.7971 33.7428C24.8666 33.627 23.9943 33.3376 23.0639 32.8167C21.7846 32.1222 20.4471 30.9646 18.9351 29.3441C21.3194 26.4502 22.7732 23.7299 23.2965 21.3569C23.5291 20.2572 23.5873 19.2154 23.471 18.2894C23.3547 17.3633 23.0058 16.5531 22.4824 15.8585C21.3775 14.2379 19.4585 13.3119 17.365 13.3119C15.2716 13.3119 13.3526 14.2958 12.2477 15.8585C11.7243 16.5531 11.4335 17.4212 11.2591 18.2894C11.1428 19.2154 11.1428 20.2572 11.4335 21.3569C11.9569 23.7299 13.4689 26.4502 15.7949 29.3441C14.283 31.0225 12.9455 32.1222 11.6662 32.8167C10.7357 33.3376 9.8053 33.627 8.93302 33.7428C7.94444 33.8585 7.01401 33.6849 6.19988 33.3955C4.39718 32.701 3.17599 31.0225 2.88523 29.1704C2.76892 28.2444 2.82708 27.3762 3.23414 26.3344C3.35044 25.9871 3.5249 25.6399 3.69935 25.1768C3.93196 24.5981 4.22272 23.9614 4.51348 23.3826L4.57163 23.3248C7.07216 17.9421 9.74714 12.4437 12.5384 7.11897L12.6547 6.88746C12.9455 6.36656 13.2363 5.78778 13.527 5.209C13.8178 4.63023 14.1667 4.10932 14.5156 3.6463C15.2716 2.77814 16.3183 2.31511 17.4232 2.31511C18.5281 2.31511 19.5748 2.77814 20.3308 3.6463C20.7378 4.10932 21.0286 4.63023 21.3194 5.209C21.6101 5.7299 21.9009 6.30868 22.1916 6.88746L22.3079 7.11897C25.0411 12.5016 27.7161 18 30.2166 23.3248V23.3826C30.5073 23.9614 30.74 24.5981 31.0307 25.1768C31.2052 25.582 31.3796 25.9871 31.4959 26.3344C31.903 27.3183 32.0193 28.2444 31.8448 29.1704Z" fill="#A29FB2"/>
</svg>