<svg width="155" height="76" viewBox="0 0 155 76" fill="none" xmlns="http://www.w3.org/2000/svg">
<g filter="url(#filter0_d_600_9494)">
<rect x="24" y="12" width="107" height="28" rx="8" fill="#00B627"/>
<rect x="32" y="23" width="6" height="6" rx="2" fill="white"/>
<path d="M52.331 24.2173H50.7372C50.6918 23.956 50.608 23.7244 50.4858 23.5227C50.3636 23.3182 50.2116 23.1449 50.0298 23.0028C49.848 22.8608 49.6406 22.7543 49.4077 22.6832C49.1776 22.6094 48.929 22.5724 48.6619 22.5724C48.1875 22.5724 47.767 22.6918 47.4006 22.9304C47.0341 23.1662 46.7472 23.5128 46.5398 23.9702C46.3324 24.4247 46.2287 24.9801 46.2287 25.6364C46.2287 26.304 46.3324 26.8665 46.5398 27.3239C46.75 27.7784 47.0369 28.1222 47.4006 28.3551C47.767 28.5852 48.1861 28.7003 48.6577 28.7003C48.919 28.7003 49.1634 28.6662 49.3906 28.598C49.6207 28.527 49.8267 28.4233 50.0085 28.2869C50.1932 28.1506 50.348 27.983 50.473 27.7841C50.6009 27.5852 50.6889 27.358 50.7372 27.1023L52.331 27.1108C52.2713 27.5256 52.142 27.9148 51.9432 28.2784C51.7472 28.642 51.4901 28.9631 51.1719 29.2415C50.8537 29.517 50.4815 29.733 50.0554 29.8892C49.6293 30.0426 49.1563 30.1193 48.6364 30.1193C47.8693 30.1193 47.1847 29.9418 46.5824 29.5866C45.9801 29.2315 45.5057 28.7188 45.1591 28.0483C44.8125 27.3778 44.6392 26.5739 44.6392 25.6364C44.6392 24.696 44.8139 23.892 45.1634 23.2244C45.5128 22.554 45.9886 22.0412 46.5909 21.6861C47.1932 21.331 47.875 21.1534 48.6364 21.1534C49.1222 21.1534 49.5739 21.2216 49.9915 21.358C50.4091 21.4943 50.7813 21.6946 51.108 21.9588C51.4347 22.2202 51.7031 22.5412 51.9134 22.9219C52.1264 23.2997 52.2656 23.7315 52.331 24.2173ZM61.5771 25.6364C61.5771 26.5767 61.4009 27.3821 61.0487 28.0526C60.6992 28.7202 60.2219 29.2315 59.6168 29.5866C59.0146 29.9418 58.3313 30.1193 57.5671 30.1193C56.8029 30.1193 56.1183 29.9418 55.5131 29.5866C54.9109 29.2287 54.4336 28.7159 54.0813 28.0483C53.7319 27.3778 53.5572 26.5739 53.5572 25.6364C53.5572 24.696 53.7319 23.892 54.0813 23.2244C54.4336 22.554 54.9109 22.0412 55.5131 21.6861C56.1183 21.331 56.8029 21.1534 57.5671 21.1534C58.3313 21.1534 59.0146 21.331 59.6168 21.6861C60.2219 22.0412 60.6992 22.554 61.0487 23.2244C61.4009 23.892 61.5771 24.696 61.5771 25.6364ZM59.9876 25.6364C59.9876 24.9744 59.8839 24.4162 59.6765 23.9616C59.4719 23.5043 59.1879 23.1591 58.8242 22.9261C58.4606 22.6903 58.0415 22.5724 57.5671 22.5724C57.0927 22.5724 56.6737 22.6903 56.31 22.9261C55.9464 23.1591 55.6609 23.5043 55.4535 23.9616C55.2489 24.4162 55.1467 24.9744 55.1467 25.6364C55.1467 26.2983 55.2489 26.858 55.4535 27.3153C55.6609 27.7699 55.9464 28.1151 56.31 28.3509C56.6737 28.5838 57.0927 28.7003 57.5671 28.7003C58.0415 28.7003 58.4606 28.5838 58.8242 28.3509C59.1879 28.1151 59.4719 27.7699 59.6765 27.3153C59.8839 26.858 59.9876 26.2983 59.9876 25.6364ZM63.0717 21.2727H65.0064L67.5973 27.5966H67.6996L70.2905 21.2727H72.2251V30H70.7081V24.0043H70.6271L68.2152 29.9744H67.0817L64.6697 23.9915H64.5888V30H63.0717V21.2727ZM73.9467 30V21.2727H77.2195C77.8899 21.2727 78.4524 21.3977 78.907 21.6477C79.3643 21.8977 79.7095 22.2415 79.9425 22.679C80.1783 23.1136 80.2962 23.608 80.2962 24.1619C80.2962 24.7216 80.1783 25.2187 79.9425 25.6534C79.7067 26.0881 79.3587 26.4304 78.8984 26.6804C78.4382 26.9276 77.8714 27.0511 77.1982 27.0511H75.0291V25.7514H76.9851C77.3771 25.7514 77.6982 25.6832 77.9482 25.5469C78.1982 25.4105 78.3828 25.223 78.5021 24.9844C78.6243 24.7457 78.6854 24.4716 78.6854 24.1619C78.6854 23.8523 78.6243 23.5795 78.5021 23.3438C78.3828 23.108 78.1967 22.9247 77.9439 22.794C77.6939 22.6605 77.3714 22.5938 76.9766 22.5938H75.5277V30H73.9467ZM81.6694 30V21.2727H83.2504V28.6747H87.0941V30H81.6694ZM88.4663 30V21.2727H94.1424V22.598H90.0472V24.9673H93.8484V26.2926H90.0472V28.6747H94.1765V30H88.4663ZM95.3718 22.598V21.2727H102.335V22.598H99.6374V30H98.0692V22.598H95.3718ZM103.677 30V21.2727H109.353V22.598H105.258V24.9673H109.059V26.2926H105.258V28.6747H109.387V30H103.677ZM113.924 30H110.966V21.2727H113.983C114.85 21.2727 115.594 21.4474 116.216 21.7969C116.841 22.1435 117.321 22.642 117.657 23.2926C117.992 23.9432 118.159 24.7216 118.159 25.6278C118.159 26.5369 117.99 27.3182 117.652 27.9716C117.317 28.625 116.833 29.1264 116.199 29.4759C115.569 29.8253 114.81 30 113.924 30ZM112.547 28.6321H113.847C114.455 28.6321 114.962 28.5213 115.368 28.2997C115.775 28.0753 116.08 27.7415 116.284 27.2983C116.489 26.8523 116.591 26.2955 116.591 25.6278C116.591 24.9602 116.489 24.4062 116.284 23.9659C116.08 23.5227 115.777 23.1918 115.377 22.973C114.979 22.7514 114.485 22.6406 113.894 22.6406H112.547V28.6321Z" fill="white"/>
</g>
<defs>
<filter id="filter0_d_600_9494" x="0" y="0" width="155" height="76" filterUnits="userSpaceOnUse" color-interpolation-filters="sRGB">
<feFlood flood-opacity="0" result="BackgroundImageFix"/>
<feColorMatrix in="SourceAlpha" type="matrix" values="0 0 0 0 0 0 0 0 0 0 0 0 0 0 0 0 0 0 127 0" result="hardAlpha"/>
<feOffset dy="12"/>
<feGaussianBlur stdDeviation="12"/>
<feColorMatrix type="matrix" values="0 0 0 0 0 0 0 0 0 0 0 0 0 0 0 0 0 0 0.12 0"/>
<feBlend mode="normal" in2="BackgroundImageFix" result="effect1_dropShadow_600_9494"/>
<feBlend mode="normal" in="SourceGraphic" in2="effect1_dropShadow_600_9494" result="shape"/>
</filter>
</defs>
</svg>
