<svg width="111" height="42" viewBox="0 0 111 42" fill="none" xmlns="http://www.w3.org/2000/svg">
<path fill-rule="evenodd" clip-rule="evenodd" d="M108.805 20.3475L108.805 20.3476C108.502 21.485 107.36 25.7716 103.826 25.7716C102.249 25.7716 101.149 24.6105 100.489 23.1954C105.403 22.1069 107.054 18.2608 107.054 15.6484C107.054 12.6005 104.853 11.4757 102.983 11.4757C99.9389 11.4757 95.9413 14.3059 95.9413 19.7847C95.9413 20.2927 95.978 20.7644 96.0146 21.1998C94.9511 20.8733 94.0342 20.329 93.4107 19.3856C94.3276 15.3218 94.1809 11.4394 92.2738 11.4394C91.2102 11.4394 90.2933 12.8182 90.2933 15.8661C90.2933 17.0634 90.6234 18.406 91.2469 19.6033C90.8434 21.4538 89.5231 25.953 87.7994 25.953C85.7641 25.953 86.0451 17.6325 86.1558 14.3564C86.1727 13.8543 86.1857 13.4706 86.1857 13.2536C86.1857 11.9111 82.9216 10.5323 82.2248 11.2217C81.9314 11.512 81.858 13.3262 81.858 15.6484C81.858 17.5714 82.0047 19.821 82.4448 21.9255C82.2248 23.0503 81.2345 25.9893 79.4375 25.9893C77.1406 25.9893 77.6828 18.8688 77.9447 15.4291C78.0007 14.6945 78.0438 14.1279 78.0438 13.8342C78.0438 12.6368 74.9264 11.512 74.1562 12.2377C73.8628 12.528 73.6428 14.6687 73.6428 17.9705C73.6428 19.3493 73.7161 20.8007 73.9362 22.1795C73.6428 23.6308 72.4692 25.9893 70.5987 25.9893C67.604 25.9893 68.9007 14.6198 69.7083 7.53769L69.7185 7.4482C70.1952 7.37564 70.7086 7.30309 71.2219 7.23054L71.2222 7.23049C71.3276 7.21891 71.4349 7.20662 71.5431 7.19424C72.7899 7.05151 74.1562 6.89509 74.1562 7.62962C74.1562 9.4801 75.4032 10.0606 76.3201 10.0606C77.347 10.0606 78.2272 9.26239 78.2272 7.73847C78.2272 6.25082 76.9069 4.83575 74.5963 4.83575C73.056 4.83575 71.479 5.01717 69.9386 5.27116C69.9681 4.95032 69.9976 4.65033 70.0249 4.37187C70.0997 3.61112 70.1586 3.01113 70.1586 2.58614C70.1586 1.02593 66.8946 -0.497994 66.2344 0.155117C66.1244 0.263969 65.6843 2.73128 65.2808 6.17826C63.007 6.61366 60.7698 7.01279 58.5326 7.01279C57.7624 7.01279 57.8725 9.33496 60.4764 9.33496C61.9801 9.33496 63.4838 9.00841 65.0241 8.60928C64.8041 11.004 64.6574 13.6528 64.6574 16.1926C64.6574 18.4785 64.8041 20.4741 65.0975 22.1795C64.8041 23.4494 63.8872 26.0256 62.1635 26.0256C59.4173 26.0256 60.0475 18.215 60.3368 14.6289C60.3952 13.9046 60.4397 13.3527 60.4397 13.0722C60.4397 12.274 57.4324 10.5323 56.8089 11.1492C56.7355 11.2217 56.6622 11.7297 56.6622 11.7297C56.6622 11.7297 56.2588 11.4394 55.1585 11.4394C50.9409 11.4394 47.5667 16.5918 47.5667 21.2724C47.5667 21.4901 47.5667 21.7078 47.6034 21.9255C46.9433 23.4494 45.2929 26.0619 42.3222 26.0619C40.8185 26.0619 39.7549 25.0822 39.0214 23.8123C43.6425 22.506 45.4396 18.5148 45.4396 15.9386C45.4396 12.9271 42.8723 11.4394 41.0019 11.4394C37.7378 11.4394 34.1803 14.6687 34.1803 20.1113C34.1803 21.7078 34.4737 23.0503 34.9872 24.2114C34.4004 25.1185 33.5202 26.0256 32.3099 26.0256C29.5445 26.0256 30.573 18.4946 31.0341 15.1179L31.0341 15.1178C31.1356 14.3745 31.2096 13.8325 31.2096 13.6165C31.2096 13.3262 31.2096 12.7457 30.6595 12.3828C30.1661 12.0232 27.9814 11.6635 26.266 11.3811C25.5586 11.2647 24.931 11.1613 24.5347 11.0766V10.2783C24.5347 8.10131 23.1778 7.62962 22.2609 7.62962C20.7572 7.62962 20.4638 9.29868 20.4638 9.6978C20.4638 10.0969 20.5738 11.512 22.0775 12.3465C22.0775 16.3741 19.4736 25.9167 12.5053 25.9167C7.22406 25.9167 5.31695 20.5467 5.31695 16.5555C5.31695 9.80665 9.31454 4.61805 11.8818 4.61805C13.491 4.61805 13.5867 6.16044 13.6827 7.70718C13.7792 9.26269 13.876 10.8226 15.5126 10.8226C17.7865 10.8226 18.1166 8.64557 18.1166 7.62962C18.1166 5.74285 16.1361 2.2233 11.8818 2.2233C5.13357 2.2233 0.145752 10.3509 0.145752 17.3174C0.145752 24.03 4.8035 29.4 11.3317 29.4C21.4174 29.4 23.9113 18.8051 24.4247 12.8908C24.659 12.9552 25.0089 13.0333 25.3692 13.1138C26.0242 13.26 26.714 13.414 26.8086 13.5076C26.9255 13.6233 26.8294 14.4316 26.6901 15.6034L26.69 15.6034V15.6034V15.6034C26.5235 17.004 26.2951 18.9239 26.2951 20.8007C26.2951 25.1185 27.7255 28.6018 31.1729 28.6018C33.3368 28.6018 35.0605 27.0415 35.9774 25.8442C37.371 27.6221 39.3882 28.5292 41.3686 28.5292C44.7794 28.5292 47.0166 26.4247 48.1169 24.7557C49.0704 27.2955 51.0142 28.5292 52.7746 28.5292C55.2319 28.5292 56.6989 25.2636 56.7722 24.7557C57.5057 27.0415 59.2294 28.6018 61.1732 28.6018C63.6305 28.6018 65.1342 26.3884 65.721 25.0096C66.6012 27.3318 67.9948 28.6018 70.0119 28.6018C72.3225 28.6018 73.8262 26.5336 74.523 25.1548C75.2565 27.1867 76.4668 28.6018 78.3739 28.6018C80.9411 28.6018 82.5549 25.9893 83.0683 24.6831C83.9118 26.9327 85.2321 28.5292 87.2859 28.5292C89.5598 28.5292 91.5403 25.2999 92.7139 21.6715C93.6674 22.5786 94.9144 23.2317 96.4181 23.4131C97.555 26.6787 100.232 28.4929 103.056 28.4929C107.971 28.4929 109.878 23.4857 110.098 22.3246C110.391 21.1273 109.254 19.7122 108.888 20.075C108.874 20.0885 108.848 20.1864 108.805 20.3475ZM40.8552 12.9996C42.909 12.9996 41.6987 20.7644 38.3246 22.0344C38.0679 21.1998 37.9579 20.4016 37.9579 19.7847C37.9212 17.1723 38.9848 12.9996 40.8552 12.9996ZM53.3614 25.3362C49.7673 25.3362 52.2978 13.0359 55.1585 13.0359C57.0656 13.0359 56.7722 25.3362 53.3614 25.3362ZM102.506 13.0722C104.487 13.0722 103.35 21.091 99.9022 21.5989C99.7188 20.9458 99.6455 20.2927 99.6455 19.7847C99.6455 17.1723 100.636 13.0722 102.506 13.0722ZM34.3614 34.3H33.1681C33.0935 34.3 33.019 34.3377 32.9817 34.4132L30.8561 37.999C30.7442 38.1123 30.6697 38.1123 30.5951 37.999L28.5441 34.4132C28.5068 34.3377 28.4322 34.3 28.3577 34.3H27.2017C27.0525 34.3 26.9406 34.4132 26.9406 34.5642V41.7358C26.9406 41.8868 27.0525 42 27.2017 42H28.3577C28.5068 42 28.6187 41.8868 28.6187 41.7358V38.0368C28.6187 37.8103 28.8424 37.6971 28.9916 37.8858L30.5951 40.5279C30.707 40.6789 30.8934 40.6789 30.968 40.5279L32.6088 37.8858C32.7579 37.6971 32.9817 37.8103 32.9817 38.0368V41.7358C32.9817 41.8868 33.0935 42 33.2427 42H34.436C34.5852 42 34.697 41.8868 34.697 41.7358V34.5642C34.6225 34.4132 34.5106 34.3 34.3614 34.3ZM42.7344 34.3C42.843 34.3 42.9154 34.3759 42.9516 34.4517L45.9564 41.6586C46.0288 41.8103 45.9202 42 45.7392 42H44.5445C44.4359 42 44.3635 41.9241 44.3273 41.8483L43.8567 40.6345C43.8205 40.5586 43.7481 40.4828 43.6395 40.4828H40.5623C40.4537 40.4828 40.3813 40.5586 40.3451 40.6345L39.9107 41.8483C39.8745 41.9241 39.802 42 39.6934 42H38.4626C38.2816 42 38.173 41.8103 38.2454 41.6586L41.2863 34.4517C41.3225 34.3759 41.3949 34.3 41.5035 34.3H42.7344ZM41.3587 39.0034H42.9154C43.0602 39.0034 43.205 38.8138 43.1688 38.6621L42.3724 36.5759C42.3 36.3862 42.0104 36.3862 41.938 36.5759L41.1415 38.6621C41.0691 38.8138 41.1777 39.0034 41.3587 39.0034ZM64.5262 37.5083C64.4549 37.5838 64.4549 37.7348 64.5262 37.8103L67.0903 41.6225C67.1971 41.7735 67.0903 42 66.9122 42H65.5589C65.4877 42 65.4165 41.9623 65.3809 41.8868L63.6002 39.1691C63.529 39.0559 63.3509 39.0559 63.2441 39.1691L62.3181 40.3392C62.3181 40.3581 62.3092 40.3864 62.3003 40.4147C62.2914 40.443 62.2825 40.4713 62.2825 40.4902V41.7358C62.2825 41.849 62.2113 41.9623 62.0689 41.9623H61.0005C60.8936 41.9623 60.7868 41.8868 60.7868 41.7358V34.5265C60.7868 34.4132 60.858 34.3 61.0005 34.3H62.0689C62.1757 34.3 62.2825 34.3755 62.2825 34.5265V37.4706C62.2825 37.6971 62.5318 37.8103 62.6743 37.6216L65.1316 34.3755C65.1672 34.3377 65.2384 34.3 65.3096 34.3H66.5205C66.6986 34.3 66.8054 34.5265 66.6986 34.6775L64.5262 37.5083ZM76.7429 40.4448H73.2299C73.0836 40.4448 72.9738 40.331 72.9738 40.1793V39.0414C72.9738 38.8897 73.0836 38.7759 73.2299 38.7759H75.5719C75.7183 38.7759 75.8281 38.6621 75.8281 38.5103V37.6759C75.8281 37.5241 75.7183 37.4103 75.5719 37.4103H73.2299C73.0836 37.4103 72.9738 37.2966 72.9738 37.1448V36.0448C72.9738 35.8931 73.0836 35.7793 73.2299 35.7793H76.4867C76.6331 35.7793 76.7429 35.6655 76.7429 35.5138V34.5655C76.7429 34.4138 76.6331 34.3 76.4867 34.3H71.6199C71.4735 34.3 71.3637 34.4138 71.3637 34.5655V41.7345C71.3637 41.8862 71.4735 42 71.6199 42H76.7429C76.8893 42 76.999 41.8862 76.999 41.7345V40.7862C77.0356 40.5586 76.8893 40.4448 76.7429 40.4448ZM80.7496 34.3H86.7067C86.8163 34.3 86.9259 34.4045 86.8529 34.509V35.4144C86.8529 35.5189 86.7798 35.6234 86.6336 35.6234H84.6966C84.587 35.6234 84.4773 35.693 84.4773 35.8323V41.091C84.4773 41.1955 84.4043 41.3 84.2581 41.3H83.1251C83.0155 41.3 82.9059 41.2303 82.9059 41.091V35.8323C82.9059 35.7279 82.8328 35.6234 82.6866 35.6234H80.7496C80.64 35.6234 80.5304 35.5537 80.5304 35.4144V34.509C80.5304 34.4045 80.6035 34.3 80.7496 34.3ZM52.6473 34.3C54.667 34.3 55.8509 35.5078 55.8509 37.1686C55.8509 38.1877 55.433 38.8672 54.8759 39.3578C54.8062 39.4333 54.7714 39.5466 54.8062 39.6598L55.7464 41.6603C55.8161 41.8113 55.7116 42 55.5375 42H54.3187C54.2143 42 54.1446 41.9245 54.1098 41.849L53.3089 40.1127C53.2524 39.9901 53.1958 39.992 53.0459 39.997C53.0112 39.9982 52.9716 39.9995 52.9259 39.9995H52.7866H51.9509C51.742 39.9995 51.7072 40.0373 51.7072 40.226V41.7358C51.7072 41.849 51.6375 41.9623 51.4982 41.9623H50.4188C50.3143 41.9623 50.2099 41.8868 50.2099 41.7358V34.5642C50.2099 34.451 50.2795 34.3377 50.4188 34.3377C51.1848 34.3 51.9161 34.3 52.6473 34.3ZM52.4732 38.5358C52.5661 38.5316 52.6589 38.5275 52.7518 38.5275C53.8313 38.452 54.3187 37.8858 54.3187 37.1686C54.3187 36.3005 53.6223 35.8475 52.717 35.8098C52.4036 35.7721 52.1598 35.7721 51.9161 35.7721C51.8116 35.7721 51.7072 35.8475 51.7072 35.9985V38.301C51.7072 38.4142 51.7768 38.5275 51.9161 38.5275C52.1018 38.5526 52.2875 38.5442 52.4732 38.5358Z" fill="#A29FB2"/>
</svg>