<svg width="132" height="80" viewBox="0 0 132 80" fill="none" xmlns="http://www.w3.org/2000/svg">
<g filter="url(#filter0_d_600_9491)">
<path d="M24 20C24 15.5817 27.5817 12 32 12H100C104.418 12 108 15.5817 108 20V36C108 40.4183 104.418 44 100 44H32C27.5817 44 24 40.4183 24 36V20Z" fill="#FCBD1F"/>
<path fill-rule="evenodd" clip-rule="evenodd" d="M35 19.75C35.4142 19.75 35.75 20.0858 35.75 20.5V20.9816C35.8691 20.9482 35.9957 20.9139 36.1279 20.8798C36.8903 20.683 37.9153 20.4713 38.7753 20.5003C39.8786 20.5375 40.6739 20.9694 41.325 21.3229C41.3359 21.3289 41.3469 21.3348 41.3578 21.3407C42.025 21.7028 42.5458 21.9757 43.2753 22.0003C43.908 22.0216 44.7579 21.8584 45.4973 21.6675C45.8569 21.5747 46.1726 21.4802 46.398 21.409C46.5105 21.3734 46.6 21.3439 46.6606 21.3234C46.6909 21.3132 46.7139 21.3053 46.7289 21.3001L46.7454 21.2944L46.749 21.2931C46.9786 21.2118 47.2338 21.2468 47.4327 21.3873C47.6317 21.5279 47.75 21.7563 47.75 21.9999V30.2499C47.75 30.5675 47.55 30.8506 47.2506 30.9568L47.2477 30.9578L47.2415 30.96L47.2196 30.9676C47.2009 30.9741 47.174 30.9833 47.1396 30.9949C47.0709 31.018 46.9724 31.0506 46.8499 31.0893C46.6055 31.1665 46.2635 31.269 45.8721 31.37C45.1097 31.5667 44.0847 31.7784 43.2247 31.7495C42.1214 31.7123 41.3261 31.2804 40.675 30.9269C40.6641 30.9209 40.6531 30.915 40.6422 30.909C39.975 30.5469 39.4542 30.274 38.7247 30.2495C38.092 30.2281 37.2421 30.3914 36.5027 30.5822C36.216 30.6562 35.9573 30.7312 35.75 30.7947V35.4999C35.75 35.9141 35.4142 36.2499 35 36.2499C34.5858 36.2499 34.25 35.9141 34.25 35.4999V20.5C34.25 20.0858 34.5858 19.75 35 19.75Z" fill="white"/>
<path d="M59.0043 22.8182H61.2614L64.2841 30.196H64.4034L67.4261 22.8182H69.6832V33H67.9134V26.005H67.8189L65.005 32.9702H63.6825L60.8686 25.9901H60.7741V33H59.0043V22.8182ZM73.8097 33.1541C73.3258 33.1541 72.8899 33.0679 72.5021 32.8956C72.1177 32.7199 71.8127 32.4614 71.5874 32.12C71.3653 31.7786 71.2543 31.3577 71.2543 30.8572C71.2543 30.4264 71.3338 30.0701 71.4929 29.7884C71.652 29.5066 71.8691 29.2812 72.1442 29.1122C72.4193 28.9432 72.7292 28.8156 73.0739 28.7294C73.4219 28.6399 73.7815 28.5753 74.1527 28.5355C74.6001 28.4891 74.9631 28.4477 75.2415 28.4112C75.5199 28.3714 75.7221 28.3118 75.848 28.2322C75.9773 28.1494 76.0419 28.0218 76.0419 27.8494V27.8196C76.0419 27.4451 75.9309 27.1551 75.7088 26.9496C75.4867 26.7441 75.1669 26.6413 74.7493 26.6413C74.3085 26.6413 73.9588 26.7375 73.7003 26.9297C73.4451 27.1219 73.2727 27.349 73.1832 27.6108L71.5028 27.3722C71.6354 26.9081 71.8542 26.5204 72.1591 26.2088C72.464 25.8939 72.8369 25.6586 73.2777 25.5028C73.7185 25.3438 74.2057 25.2642 74.7393 25.2642C75.1072 25.2642 75.4735 25.3073 75.8381 25.3935C76.2027 25.4796 76.5357 25.6222 76.8374 25.821C77.139 26.0166 77.3809 26.2834 77.5632 26.6214C77.7488 26.9595 77.8416 27.3821 77.8416 27.8892V33H76.1115V31.951H76.0518C75.9425 32.1631 75.7884 32.362 75.5895 32.5476C75.3939 32.7299 75.147 32.8774 74.8487 32.9901C74.5537 33.0994 74.2074 33.1541 73.8097 33.1541ZM74.277 31.8317C74.6383 31.8317 74.9515 31.7604 75.2166 31.6179C75.4818 31.4721 75.6856 31.2798 75.8281 31.0412C75.974 30.8026 76.0469 30.5424 76.0469 30.2607V29.3608C75.9905 29.4072 75.8944 29.4503 75.7585 29.4901C75.6259 29.5298 75.4768 29.5646 75.3111 29.5945C75.1454 29.6243 74.9813 29.6508 74.8189 29.674C74.6565 29.6972 74.5156 29.7171 74.3963 29.7337C74.1278 29.7701 73.8875 29.8298 73.6754 29.9126C73.4633 29.9955 73.2959 30.1115 73.1733 30.2607C73.0507 30.4065 72.9893 30.5954 72.9893 30.8274C72.9893 31.1589 73.1103 31.4091 73.3523 31.5781C73.5942 31.7472 73.9025 31.8317 74.277 31.8317ZM79.6513 33V25.3636H81.3963V26.6364H81.4759C81.6151 26.1955 81.8537 25.8558 82.1918 25.6172C82.5331 25.3752 82.9226 25.2543 83.3601 25.2543C83.4595 25.2543 83.5705 25.2592 83.6932 25.2692C83.8191 25.2758 83.9235 25.2874 84.0064 25.304V26.9595C83.9302 26.933 83.8092 26.9098 83.6435 26.8899C83.4811 26.8667 83.3236 26.8551 83.1712 26.8551C82.843 26.8551 82.5481 26.9264 82.2862 27.0689C82.0277 27.2081 81.8239 27.402 81.6747 27.6506C81.5256 27.8991 81.451 28.1858 81.451 28.5107V33H79.6513ZM89.0277 33L93.358 24.429V24.3594H88.3317V22.8182H95.267V24.3942L90.9418 33H89.0277Z" fill="white"/>
</g>
<defs>
<filter id="filter0_d_600_9491" x="0" y="0" width="132" height="80" filterUnits="userSpaceOnUse" color-interpolation-filters="sRGB">
<feFlood flood-opacity="0" result="BackgroundImageFix"/>
<feColorMatrix in="SourceAlpha" type="matrix" values="0 0 0 0 0 0 0 0 0 0 0 0 0 0 0 0 0 0 127 0" result="hardAlpha"/>
<feOffset dy="12"/>
<feGaussianBlur stdDeviation="12"/>
<feColorMatrix type="matrix" values="0 0 0 0 0 0 0 0 0 0 0 0 0 0 0 0 0 0 0.12 0"/>
<feBlend mode="normal" in2="BackgroundImageFix" result="effect1_dropShadow_600_9491"/>
<feBlend mode="normal" in="SourceGraphic" in2="effect1_dropShadow_600_9491" result="shape"/>
</filter>
</defs>
</svg>