<svg width="24" height="24" viewBox="0 0 24 24" fill="none" xmlns="http://www.w3.org/2000/svg">
    <path
        d="M8.64.018C7.611.107 6.734.443 5.941 1.051a6.49 6.49 0 0 0-.881.871c-.698.922-1.043 1.933-1.044 3.061 0 .493.036.803.142 1.231.478 1.928 2.087 3.396 4.077 3.719.309.05 1.221.05 1.53 0a5.066 5.066 0 0 0 3.707-2.706 5.354 5.354 0 0 0 .477-1.552 5.752 5.752 0 0 0-.107-1.91A5.086 5.086 0 0 0 11.63.753 5.053 5.053 0 0 0 9.765.064 8.206 8.206 0 0 0 8.64.018m1.14 2.081c.492.142.924.391 1.3.749a2.98 2.98 0 0 1 .574 3.534 3.01 3.01 0 0 1-3.895 1.346c-.565-.25-1.108-.767-1.413-1.346a2.992 2.992 0 0 1 .832-3.762 3.355 3.355 0 0 1 1.287-.578c.088-.016.369-.024.625-.018.364.008.514.024.69.075m-5.35 9.932c-2.037.241-3.742 1.712-4.255 3.672-.138.529-.148.644-.165 1.989l-.017 1.298h2.013l.011-1.267.01-1.268.082-.27a3.047 3.047 0 0 1 2.309-2.137c.23-.049.54-.053 4.582-.053s4.352.004 4.582.053a3.049 3.049 0 0 1 2.309 2.137l.081.27.011 1.268.011 1.267h2.012l-.014-1.267c-.009-.762-.028-1.352-.05-1.478-.183-1.095-.653-2.019-1.411-2.776a4.507 4.507 0 0 0-.955-.753 5.353 5.353 0 0 0-1.708-.647c-.243-.048-.601-.053-4.748-.057-2.467-.003-4.577.006-4.69.019"
        fill-rule="evenodd" fill="#DDD9ED"></path>
</svg>